<?xml version="1.0" encoding="UTF-8"?>
<svg version="1.1" xmlns="http://www.w3.org/2000/svg" width="702" height="355">
<path d="M0 0 C231.66 0 463.32 0 702 0 C702 117.15 702 234.3 702 355 C470.34 355 238.68 355 0 355 C0 237.85 0 120.7 0 0 Z " fill="#FDFCFD" transform="translate(0,0)"/>
<path d="M0 0 C1.84525269 0.01099731 1.84525269 0.01099731 3.7277832 0.0222168 C12.36238189 0.20807312 20.72653881 0.80730929 28.1875 5.5625 C28.6825 7.0475 28.6825 7.0475 29.1875 8.5625 C31.69197516 9.78119929 31.69197516 9.78119929 34.1875 10.5625 C34.1875 11.2225 34.1875 11.8825 34.1875 12.5625 C35.06535156 12.93761719 35.06535156 12.93761719 35.9609375 13.3203125 C38.48282706 14.72726141 39.93836062 16.24962804 41.8125 18.4375 C42.69808594 19.45457031 42.69808594 19.45457031 43.6015625 20.4921875 C46.36797896 24.10351933 47.1875 25.9136719 47.1875 30.5625 C47.8475 30.5625 48.5075 30.5625 49.1875 30.5625 C52.10102198 41.24541394 52.33365271 51.57355448 52.31689453 62.59741211 C52.31825162 64.10286501 52.32003328 65.60831758 52.32220459 67.11376953 C52.32673954 71.17729922 52.32500638 75.24080335 52.3218255 79.30433345 C52.31928476 83.56214766 52.32164391 87.81995975 52.32321167 92.07777405 C52.32502698 99.21860139 52.32264238 106.35941837 52.31787109 113.50024414 C52.3124151 121.76136601 52.31420337 130.02246325 52.3196975 138.28358454 C52.32422945 145.3818298 52.32487921 152.48006764 52.32225883 159.57831389 C52.32069839 163.81593039 52.32049625 168.05353529 52.32379532 172.29115105 C52.3266757 176.26794724 52.32469527 180.24471148 52.31890106 184.22150421 C52.31757499 185.68326069 52.317965 187.14501985 52.32016373 188.60677528 C52.32288079 190.59587637 52.31887552 192.58498332 52.31448364 194.57408142 C52.3139181 196.24619391 52.3139181 196.24619391 52.31334114 197.95208645 C52.1875 200.5625 52.1875 200.5625 51.1875 202.5625 C42.62857154 203.14962162 36.95170907 203.04067426 30.1875 197.5625 C29.40375 197.129375 28.62 196.69625 27.8125 196.25 C22.44279439 190.67376725 23.96118869 180.15429183 24.0625 173.0625 C24.07152344 171.85851562 24.08054687 170.65453125 24.08984375 169.4140625 C24.11326225 166.4633321 24.14606007 163.51302311 24.1875 160.5625 C23.58059326 160.97459717 22.97368652 161.38669434 22.34838867 161.8112793 C21.5463501 162.35179932 20.74431152 162.89231934 19.91796875 163.44921875 C19.12543701 163.98506592 18.33290527 164.52091309 17.51635742 165.07299805 C7.08438493 171.74512974 -5.79803909 171.95055411 -17.6875 169.5625 C-19.06587077 169.24339165 -20.44255487 168.91603423 -21.8125 168.5625 C-21.8125 167.9025 -21.8125 167.2425 -21.8125 166.5625 C-23.070625 166.294375 -24.32875 166.02625 -25.625 165.75 C-28.99491999 165.03182033 -30.51054394 164.10579016 -32.8125 161.5625 C-33.95111518 160.59560173 -35.09721338 159.63745779 -36.25 158.6875 C-40.68431774 154.89868421 -44.02682425 151.21713986 -45.8125 145.5625 C-45.8125 144.5725 -45.8125 143.5825 -45.8125 142.5625 C-46.4725 142.5625 -47.1325 142.5625 -47.8125 142.5625 C-49.10493536 138.4428623 -50.07502625 134.89418317 -49.8125 130.5625 C-50.4725 130.5625 -51.1325 130.5625 -51.8125 130.5625 C-52.55623365 125.24734611 -52.96134177 120.06786266 -52.95776367 114.69702148 C-52.96112228 113.95607239 -52.9644809 113.21512329 -52.96794128 112.45172119 C-52.97735621 110.0289945 -52.97938918 107.60633754 -52.98046875 105.18359375 C-52.98368649 103.48543775 -52.98705095 101.78728202 -52.99055481 100.08912659 C-52.99652137 96.5412634 -52.99839712 92.99342449 -52.99780273 89.44555664 C-52.99770093 84.91083423 -53.01138344 80.37626772 -53.02857494 75.8415823 C-53.03971559 72.33876333 -53.04172135 68.83598192 -53.04119301 65.33314705 C-53.04236884 63.66148399 -53.04676822 61.98981983 -53.05452538 60.31817436 C-53.06437288 57.97820056 -53.06142927 55.63856374 -53.05541992 53.29858398 C-53.06103943 52.61631241 -53.06665894 51.93404083 -53.07244873 51.23109436 C-53.04300979 46.69749703 -52.20956747 42.86238686 -50.8125 38.5625 C-50.45929688 37.39847656 -50.10609375 36.23445313 -49.7421875 35.03515625 C-49.39414062 33.90980469 -49.04609375 32.78445312 -48.6875 31.625 C-48.15769531 29.90990234 -48.15769531 29.90990234 -47.6171875 28.16015625 C-47.21886719 26.87431641 -47.21886719 26.87431641 -46.8125 25.5625 C-46.1525 25.5625 -45.4925 25.5625 -44.8125 25.5625 C-44.5959375 24.6653125 -44.5959375 24.6653125 -44.375 23.75 C-43.37386056 19.85667997 -42.5379389 18.07424797 -39.4375 15.5625 C-37.64857131 14.1009072 -35.92403189 12.67605448 -34.3046875 11.02734375 C-25.03393222 1.92647142 -12.4367146 -0.15110106 0 0 Z " fill="#6C2F80" transform="translate(375.8125,25.4375)"/>
<path d="M0 0 C0.75539063 -0.020625 1.51078125 -0.04125 2.2890625 -0.0625 C6.87105778 -0.09454193 9.94467559 0.2091142 13.625 3.25 C14.62069409 6.23708228 14.76130862 8.23567096 14.78321838 11.35624695 C14.7930072 12.4121402 14.80279602 13.46803345 14.81288147 14.55592346 C14.82151466 16.29300819 14.82151466 16.29300819 14.83032227 18.06518555 C14.84022186 19.28481995 14.85012146 20.50445435 14.86032104 21.76104736 C14.88651521 25.10579915 14.90837461 28.45052699 14.92832303 31.79531837 C14.9501893 35.29072117 14.97757485 38.78608057 15.00437927 42.28144836 C15.05429749 48.900569 15.09923955 55.51971374 15.14240164 62.1388815 C15.19178145 69.6745074 15.24669682 77.21008975 15.30208123 84.74567354 C15.4158879 100.24707546 15.52272981 115.74851742 15.625 131.25 C16.285 131.25 16.945 131.25 17.625 131.25 C17.99625 132.343125 18.3675 133.43625 18.75 134.5625 C20.1048799 137.79588489 20.60158038 138.23576455 23.8125 140.1875 C24.740625 140.538125 25.66875 140.88875 26.625 141.25 C26.625 141.91 26.625 142.57 26.625 143.25 C33.885 143.25 41.145 143.25 48.625 143.25 C48.955 142.26 49.285 141.27 49.625 140.25 C52.0625 137.5625 52.0625 137.5625 54.625 135.25 C55.285 135.25 55.945 135.25 56.625 135.25 C57.285 131.29 57.945 127.33 58.625 123.25 C59.285 123.25 59.945 123.25 60.625 123.25 C60.62315641 122.63947124 60.62131283 122.02894247 60.61941338 121.39991283 C60.57526813 106.55276177 60.5421599 91.70561702 60.52137566 76.85841656 C60.51105771 69.67845492 60.49698751 62.49853706 60.47412109 55.31860352 C60.45420304 49.06146443 60.44128733 42.80435705 60.43682301 36.54718715 C60.43421293 33.23324784 60.4270233 29.91942052 60.41353989 26.60550499 C60.39909127 22.90841597 60.39701929 19.21151686 60.39794922 15.5144043 C60.39075867 14.41245224 60.38356812 13.31050018 60.37615967 12.17515564 C60.378909 11.16974731 60.38165833 10.16433899 60.38449097 9.12846375 C60.38264738 8.2536822 60.38080379 7.37890066 60.37890434 6.47761059 C60.625 4.25 60.625 4.25 62.625 1.25 C66.45285293 -0.02595098 70.0746657 0.06584831 74.0625 0.0625 C74.82626953 0.05025391 75.59003906 0.03800781 76.37695312 0.02539062 C83.5473074 0.00666907 83.5473074 0.00666907 86.625 2.25 C87.87082188 4.74164376 87.75083112 6.40725644 87.75198364 9.19561768 C87.75621338 10.76438911 87.75621338 10.76438911 87.76052856 12.36485291 C87.75749222 14.09319115 87.75749222 14.09319115 87.75439453 15.85644531 C87.75702301 17.67122124 87.75702301 17.67122124 87.75970459 19.5226593 C87.76335978 22.84723968 87.76249105 26.17175808 87.7593255 29.49633503 C87.75679687 32.97556454 87.75914107 36.45479138 87.76071167 39.934021 C87.76253286 45.78170243 87.7601294 51.62937126 87.75537109 57.47705078 C87.74993873 64.23094614 87.75168386 70.98481126 87.7571975 77.73870587 C87.76174222 83.53836998 87.76237221 89.338025 87.75975883 95.13769031 C87.75820223 98.60088518 87.75798518 102.06406587 87.76129532 105.52725983 C87.76473216 109.39351058 87.75996206 113.2597278 87.75439453 117.12597656 C87.75641876 118.27010513 87.75844299 119.4142337 87.76052856 120.59303284 C87.74721016 125.58598203 87.70078112 130.34634951 86.625 135.25 C85.965 135.25 85.305 135.25 84.625 135.25 C84.4084375 136.8896875 84.4084375 136.8896875 84.1875 138.5625 C83.625 142.25 83.625 142.25 82.625 145.25 C81.965 145.25 81.305 145.25 80.625 145.25 C80.356875 146.384375 80.08875 147.51875 79.8125 148.6875 C79.420625 149.863125 79.02875 151.03875 78.625 152.25 C77.635 152.58 76.645 152.91 75.625 153.25 C75.33625 153.8275 75.0475 154.405 74.75 155 C73.22887378 158.04225245 71.13786104 159.98842507 68.625 162.25 C67.965 162.25 67.305 162.25 66.625 162.25 C66.625 162.91 66.625 163.57 66.625 164.25 C64.645 164.91 62.665 165.57 60.625 166.25 C60.625 166.91 60.625 167.57 60.625 168.25 C52.44401341 170.84321839 44.78455832 171.55113763 36.25 171.5625 C35.31140137 171.56765625 34.37280273 171.5728125 33.40576172 171.578125 C19.84065217 171.44283629 8.31804958 165.64069758 -1.375 156.25 C-4.375 151.83862144 -4.375 151.83862144 -4.375 149.25 C-5.035 149.25 -5.695 149.25 -6.375 149.25 C-14.75658627 132.1874851 -14.96024669 116.38511062 -14.87109375 97.67578125 C-14.87124894 95.01636236 -14.87268782 92.35697019 -14.87550354 89.69755554 C-14.87818784 84.15448123 -14.86487081 78.61162575 -14.84155273 73.06860352 C-14.81480903 66.66705019 -14.81324809 60.26585886 -14.8249411 53.8642686 C-14.83571785 47.67855609 -14.82954201 41.49297408 -14.81538582 35.30727196 C-14.81086849 32.68416919 -14.81053696 30.06105578 -14.81445122 27.43795204 C-14.8173535 23.78563995 -14.80090801 20.13392602 -14.77905273 16.48168945 C-14.78355438 15.39754761 -14.78805603 14.31340576 -14.79269409 13.19641113 C-14.78278946 12.20289139 -14.77288483 11.20937164 -14.76268005 10.18574524 C-14.76025016 9.32399343 -14.75782026 8.46224161 -14.75531673 7.57437611 C-14.28630387 4.70791717 -13.36211632 3.3455309 -11.375 1.25 C-7.56907507 -0.01864164 -3.96629359 0.02679928 0 0 Z " fill="#612F7B" transform="translate(459.375,24.75)"/>
<path d="M0 0 C0 0.66 0 1.32 0 2 C0.87527344 2.10957031 1.75054688 2.21914063 2.65234375 2.33203125 C10.64422582 3.9266775 17.44743953 8.30505814 22 15 C22.46277344 15.67675781 22.92554688 16.35351562 23.40234375 17.05078125 C27 22.50207756 27 22.50207756 27 26 C27.66 26 28.32 26 29 26 C30.8474813 31.54244391 31.19264164 36.64286821 31.1875 42.4375 C31.18814453 43.16001953 31.18878906 43.88253906 31.18945312 44.62695312 C31.13473189 49.86526811 31.13473189 49.86526811 30 51 C28.24314326 51.09949077 26.48232667 51.1308026 24.72265625 51.1328125 C23.65208984 51.13410156 22.58152344 51.13539062 21.47851562 51.13671875 C20.35123047 51.13285156 19.22394531 51.12898438 18.0625 51.125 C16.93908203 51.12886719 15.81566406 51.13273437 14.65820312 51.13671875 C13.58634766 51.13542969 12.51449219 51.13414063 11.41015625 51.1328125 C10.42152588 51.13168457 9.43289551 51.13055664 8.41430664 51.12939453 C6 51 6 51 4 50 C4 47.36 4 44.72 4 42 C3.34 42 2.68 42 2 42 C1.83564453 41.04287109 1.83564453 41.04287109 1.66796875 40.06640625 C1.43013672 38.82697266 1.43013672 38.82697266 1.1875 37.5625 C0.96126953 36.32693359 0.96126953 36.32693359 0.73046875 35.06640625 C0.36888672 34.04353516 0.36888672 34.04353516 0 33 C-1.485 32.505 -1.485 32.505 -3 32 C-4.02019573 31.0206121 -5.02149805 30.02104551 -6 29 C-6.66 28.67 -7.32 28.34 -8 28 C-8 27.34 -8 26.68 -8 26 C-15.59 26 -23.18 26 -31 26 C-31 26.66 -31 27.32 -31 28 C-32.423125 28.5878125 -32.423125 28.5878125 -33.875 29.1875 C-37.34127338 31.19793856 -37.9802693 32.22699642 -39 36 C-39.66 36 -40.32 36 -41 36 C-41 41.28 -41 46.56 -41 52 C-40.34 52 -39.68 52 -39 52 C-38.4121875 53.051875 -38.4121875 53.051875 -37.8125 54.125 C-32.00721613 63.33338131 -21.96409821 66.95541444 -12 70 C-12 70.66 -12 71.32 -12 72 C-9.03 72.66 -6.06 73.32 -3 74 C-3 74.66 -3 75.32 -3 76 C-2.05125 76.144375 -1.1025 76.28875 -0.125 76.4375 C3 77 3 77 5 78 C5 78.66 5 79.32 5 80 C5.78375 80.144375 6.5675 80.28875 7.375 80.4375 C10 81 10 81 12 82 C12 82.66 12 83.32 12 84 C12.969375 84.268125 13.93875 84.53625 14.9375 84.8125 C15.948125 85.204375 16.95875 85.59625 18 86 C18.33 86.99 18.66 87.98 19 89 C20.485 89.495 20.485 89.495 22 90 C27 95.46511628 27 95.46511628 27 98 C27.66 98 28.32 98 29 98 C30.25664978 100.90600261 31 102.79604584 31 106 C31.66 106 32.32 106 33 106 C35.44212755 115.65948666 35.83577539 125.18961632 34 135 C33.34 135 32.68 135 32 135 C31.938125 135.969375 31.87625 136.93875 31.8125 137.9375 C30.86379096 144.60556925 27.01327694 150.61338267 22 155 C21.175 155.886875 20.35 156.77375 19.5 157.6875 C17.15153162 159.85983325 16.10385195 160.65512756 13 161 C13 161.66 13 162.32 13 163 C10.09399739 164.25664978 8.20395416 165 5 165 C5 165.66 5 166.32 5 167 C-2.53041145 168.83507167 -9.70234007 169.33603974 -17.4375 169.3125 C-19.02014648 169.33666992 -19.02014648 169.33666992 -20.63476562 169.36132812 C-30.07965278 169.36714036 -38.73681031 167.68991847 -47 163 C-47 162.34 -47 161.68 -47 161 C-48.0209375 160.6596875 -48.0209375 160.6596875 -49.0625 160.3125 C-54.96202782 157.67654076 -59.07068923 154.80501466 -62.02734375 148.87890625 C-63.0908036 146.82459225 -64.36444429 145.02100291 -65.6875 143.125 C-68.3872457 138.90147146 -68.87412372 134.94350484 -69 130 C-69.66 130 -70.32 130 -71 130 C-71.81289372 126.40097863 -72.18960958 123.00134842 -72.25 119.3125 C-72.27578125 118.35988281 -72.3015625 117.40726562 -72.328125 116.42578125 C-72.21984375 115.62527344 -72.1115625 114.82476562 -72 114 C-68.67388261 111.7825884 -67.61928457 111.75251284 -63.74609375 111.76953125 C-62.72708984 111.77146484 -61.70808594 111.77339844 -60.65820312 111.77539062 C-59.59537109 111.78763672 -58.53253906 111.79988281 -57.4375 111.8125 C-56.37080078 111.81314453 -55.30410156 111.81378906 -54.20507812 111.81445312 C-46.28075953 111.85962024 -46.28075953 111.85962024 -44 113 C-43.36087308 115.86434404 -42.83055456 118.66879881 -42.375 121.5625 C-42.2409375 122.36880859 -42.106875 123.17511719 -41.96875 124.00585938 C-41.63792701 126.0026124 -41.31794962 128.0011567 -41 130 C-40.34 130 -39.68 130 -39 130 C-38.34 132.31 -37.68 134.62 -37 137 C-36.38125 137.144375 -35.7625 137.28875 -35.125 137.4375 C-33 138 -33 138 -31 139 C-31 139.66 -31 140.32 -31 141 C-17.47527961 142.07054511 -17.47527961 142.07054511 -4 141 C-4 140.34 -4 139.68 -4 139 C-3.39671875 138.73960937 -2.7934375 138.47921875 -2.171875 138.2109375 C1.62932549 136.09156312 3.41921343 132.98960421 5 129 C5.92705358 122.4419543 5.76121964 116.64182946 2 111 C1.34 110.01 0.68 109.02 0 108 C-1.32520503 107.31731862 -2.65812182 106.6492959 -4 106 C-4.33 105.34 -4.66 104.68 -5 104 C-9.97029992 100.93849356 -15.52669793 98.95475074 -21 97 C-21 96.34 -21 95.68 -21 95 C-23.97 94.34 -26.94 93.68 -30 93 C-30 92.34 -30 91.68 -30 91 C-30.763125 90.855625 -31.52625 90.71125 -32.3125 90.5625 C-35 90 -35 90 -38 89 C-38 88.34 -38 87.68 -38 87 C-38.763125 86.855625 -39.52625 86.71125 -40.3125 86.5625 C-44.2989919 85.72811798 -46.20465449 84.84330487 -49 82 C-51.24728814 80.47330969 -53.54004233 79.03747354 -55.84375 77.59765625 C-58.11551158 75.91441262 -59.52910151 74.40906773 -61 72 C-61 71.01 -61 70.02 -61 69 C-61.99 68.67 -62.98 68.34 -64 68 C-64.495 65.525 -64.495 65.525 -65 63 C-65.66 63 -66.32 63 -67 63 C-68.98734919 56.38338901 -69.30334544 50.32350762 -69.25 43.4375 C-69.25773438 42.43525391 -69.26546875 41.43300781 -69.2734375 40.40039062 C-69.25888421 34.87377809 -68.84464319 30.21916904 -67 25 C-66.34 25 -65.68 25 -65 25 C-64.938125 24.319375 -64.87625 23.63875 -64.8125 22.9375 C-62.94137258 16.1726547 -57.69291972 10.91477855 -52 7 C-51.34 7 -50.68 7 -50 7 C-50 6.34 -50 5.68 -50 5 C-35.00050864 -2.47122954 -16.32704708 -5.44234903 0 0 Z " fill="#532E75" transform="translate(637,27)"/>
<path d="M0 0 C0.94875 0.515625 1.8975 1.03125 2.875 1.5625 C5.23599802 3.15964572 7.05004156 4.92423779 9 7 C9.639375 7.556875 10.27875 8.11375 10.9375 8.6875 C14.94904261 13.1852902 18 17.91293995 18 24 C18.66 24 19.32 24 20 24 C21.7026416 31.00819443 22.56360244 37.77802455 22 45 C19.39904644 47.60095356 12.06143851 46.23464536 8.5625 46.25 C7.39138672 46.270625 6.22027344 46.29125 5.01367188 46.3125 C3.89669922 46.31765625 2.77972656 46.3228125 1.62890625 46.328125 C0.59838135 46.3374707 -0.43214355 46.34681641 -1.49389648 46.35644531 C-2.32091064 46.23881836 -3.1479248 46.12119141 -4 46 C-6 43 -6 43 -6.4375 39.75 C-7.27507277 34.16618152 -8.70121235 29.82677586 -13.0625 26.125 C-15.7614894 24.05179776 -15.7614894 24.05179776 -18 23 C-18 22.34 -18 21.68 -18 21 C-31.83065518 19.93281122 -31.83065518 19.93281122 -44.50390625 24.515625 C-46.19795859 26.196408 -47.06285669 27.81799467 -48 30 C-48.66 30 -49.32 30 -50 30 C-50.08112454 32.58396679 -50.14054748 35.16537568 -50.1875 37.75 C-50.21263672 38.47960937 -50.23777344 39.20921875 -50.26367188 39.9609375 C-50.32379204 44.36974926 -50.01247777 46.75229097 -47 50 C-46.67 50.99 -46.34 51.98 -46 53 C-42.99992729 54.70855022 -42.99992729 54.70855022 -40 56 C-40 56.66 -40 57.32 -40 58 C-39.12988281 58.26941406 -38.25976562 58.53882812 -37.36328125 58.81640625 C-34.11449639 59.95970685 -31.23188277 61.33583677 -28.1875 62.9375 C-23.20334244 65.48246934 -18.35494067 67.3935178 -13 69 C-13 69.66 -13 70.32 -13 71 C-12.05125 71.144375 -11.1025 71.28875 -10.125 71.4375 C-7 72 -7 72 -5 73 C-5 73.66 -5 74.32 -5 75 C-3.72125 75.268125 -2.4425 75.53625 -1.125 75.8125 C2.49675855 76.57190099 2.80051868 76.70077803 5 80 C5.8971875 80.4021875 5.8971875 80.4021875 6.8125 80.8125 C9.98976342 82.53730014 11.73921272 85.21749258 14 88 C15.485 88.99 15.485 88.99 17 90 C17.33 90.99 17.66 91.98 18 93 C18.66 93.33 19.32 93.66 20 94 C20.8515625 96.14453125 20.8515625 96.14453125 21.625 98.8125 C22.01558594 100.12154297 22.01558594 100.12154297 22.4140625 101.45703125 C23 104 23 104 23 108 C23.66 108 24.32 108 25 108 C25.02909763 111.24998112 25.04683161 114.49992857 25.0625 117.75 C25.07087891 118.67039062 25.07925781 119.59078125 25.08789062 120.5390625 C25.09111328 121.42851562 25.09433594 122.31796875 25.09765625 123.234375 C25.10289307 124.05131836 25.10812988 124.86826172 25.11352539 125.70996094 C25.00299021 127.93968135 24.62055567 129.86133755 24 132 C23.34 132 22.68 132 22 132 C21.89945312 132.8765625 21.79890625 133.753125 21.6953125 134.65625 C19.93379828 143.1273521 13.84918454 150.03098377 7 155 C6.34 155 5.68 155 5 155 C4.67 155.99 4.34 156.98 4 158 C1.93359375 158.73046875 1.93359375 158.73046875 -0.5625 159.1875 C-1.38878906 159.34605469 -2.21507813 159.50460938 -3.06640625 159.66796875 C-3.70449219 159.77753906 -4.34257813 159.88710937 -5 160 C-5 160.66 -5 161.32 -5 162 C-12.26962815 163.92431333 -18.99820937 164.30390508 -26.5 164.25 C-27.57636719 164.25773438 -28.65273437 164.26546875 -29.76171875 164.2734375 C-36.1542013 164.25786507 -41.81811877 163.63638033 -48 162 C-48 161.34 -48 160.68 -48 160 C-49.3303125 159.814375 -49.3303125 159.814375 -50.6875 159.625 C-55.51394405 158.71435018 -58.66412341 157.60274672 -62 154 C-63.03125 153.195625 -64.0625 152.39125 -65.125 151.5625 C-67.9806732 149.01722606 -68.37572762 148.49592532 -69 145 C-69.99 144.67 -70.98 144.34 -72 144 C-73.53515625 141.19921875 -73.53515625 141.19921875 -75.0625 137.6875 C-75.56910156 136.53636719 -76.07570313 135.38523438 -76.59765625 134.19921875 C-77.06042969 133.14347656 -77.52320313 132.08773437 -78 131 C-78.37769531 130.26523438 -78.75539062 129.53046875 -79.14453125 128.7734375 C-81.86563637 123.13242505 -81.60226396 115.15534184 -81 109 C-79 107 -79 107 -76.47802734 106.77294922 C-74.92269287 106.78865967 -74.92269287 106.78865967 -73.3359375 106.8046875 C-72.21445313 106.81113281 -71.09296875 106.81757813 -69.9375 106.82421875 C-68.761875 106.84097656 -67.58625 106.85773438 -66.375 106.875 C-65.19164062 106.88402344 -64.00828125 106.89304687 -62.7890625 106.90234375 C-59.85917477 106.92597188 -56.9296866 106.95891486 -54 107 C-52.13346939 110.49186973 -51.5796847 113.36416649 -51.125 117.3125 C-50.3350563 122.84832595 -49.30263084 126.4964125 -46 131 C-45.01 131.66 -44.02 132.32 -43 133 C-43 133.66 -43 134.32 -43 135 C-32.66718968 137.20014212 -23.44596618 137.3478666 -13 136 C-13 135.34 -13 134.68 -13 134 C-12.38125 133.938125 -11.7625 133.87625 -11.125 133.8125 C-8.72238859 133.171081 -8.72238859 133.171081 -7.75 130.4375 C-7.37875 129.2309375 -7.37875 129.2309375 -7 128 C-6.34 128 -5.68 128 -5 128 C-5 121.4 -5 114.8 -5 108 C-5.66 108 -6.32 108 -7 108 C-7.391875 107.278125 -7.78375 106.55625 -8.1875 105.8125 C-11.0485048 101.3730098 -15.01095353 98.66301549 -20 97 C-20 96.34 -20 95.68 -20 95 C-23.3 94.01 -26.6 93.02 -30 92 C-30 91.34 -30 90.68 -30 90 C-31.49660156 89.87431641 -31.49660156 89.87431641 -33.0234375 89.74609375 C-37.42713729 89.11556904 -40.80601586 87.25531101 -44.625 85.0625 C-45.9075295 84.34268675 -47.19135822 83.62518281 -48.4765625 82.91015625 C-49.07629883 82.5764502 -49.67603516 82.24274414 -50.29394531 81.89892578 C-52.46613471 80.7543921 -54.69573552 79.84313126 -57 79 C-57 78.34 -57 77.68 -57 77 C-57.89589844 76.77441406 -58.79179688 76.54882812 -59.71484375 76.31640625 C-67.7998466 73.07663698 -73.55248127 62.77230784 -77 55 C-78.50776953 50.00724679 -78.18425687 44.91954722 -78.1875 39.75 C-78.19974609 38.73808594 -78.21199219 37.72617188 -78.22460938 36.68359375 C-78.23613545 30.75918927 -77.7174909 25.67518733 -76 20 C-75.34 20 -74.68 20 -74 20 C-73.7834375 18.8553125 -73.7834375 18.8553125 -73.5625 17.6875 C-72.6928338 13.53242814 -71.88896336 11.64422348 -68.625 9 C-66.28994387 7.09220946 -64.12825769 5.13390293 -62 3 C-57.14001867 -1.25709757 -53.45555335 -2.66023403 -47 -3 C-47 -3.66 -47 -4.32 -47 -5 C-30.90494375 -8.14597958 -14.49411698 -8.66886234 0 0 Z " fill="#522E74" transform="translate(112,32)"/>
<path d="M0 0 C0 0.66 0 1.32 0 2 C1.093125 2.12375 2.18625 2.2475 3.3125 2.375 C7 3 7 3 10 5 C10 5.66 10 6.32 10 7 C10.58523437 7.10957031 11.17046875 7.21914063 11.7734375 7.33203125 C15.61728385 8.48518515 18.32738913 11.07157248 21 14 C22.4375 17.375 22.4375 17.375 23 20 C23.66 20 24.32 20 25 20 C26.4606285 22.64738916 27 23.89448334 27 27 C27.66 27 28.32 27 29 27 C29.67885987 29.49723452 30.34317427 31.99696141 31 34.5 C31.19078125 35.19609375 31.3815625 35.8921875 31.578125 36.609375 C32.85677012 41.5412919 33.18357474 45.90580091 33 51 C30.33821779 52.3308911 28.31260604 52.11268993 25.3359375 52.09765625 C24.21445313 52.09443359 23.09296875 52.09121094 21.9375 52.08789062 C20.761875 52.07951172 19.58625 52.07113281 18.375 52.0625 C17.19164062 52.05798828 16.00828125 52.05347656 14.7890625 52.04882812 C11.85932493 52.03701467 8.92968728 52.02054258 6 52 C4.52424595 48.46595741 3.68113402 45.51417521 3.375 41.6875 C3.26285156 40.36298828 3.26285156 40.36298828 3.1484375 39.01171875 C3.07496094 38.01591797 3.07496094 38.01591797 3 37 C2.34 37 1.68 37 1 37 C0.773125 36.4225 0.54625 35.845 0.3125 35.25 C-1.66629537 31.85777937 -4.50986942 29.74506529 -8 28 C-8 27.34 -8 26.68 -8 26 C-14.93 26 -21.86 26 -29 26 C-29 26.66 -29 27.32 -29 28 C-30.66279327 29.0064275 -32.32983484 30.00585407 -34 31 C-34.66 31.99 -35.32 32.98 -36 34 C-36.66 34 -37.32 34 -38 34 C-38.66 36.64 -39.32 39.28 -40 42 C-40.66 42 -41.32 42 -42 42 C-42 69.39 -42 96.78 -42 125 C-41.34 125 -40.68 125 -40 125 C-39.608125 126.216875 -39.21625 127.43375 -38.8125 128.6875 C-37.08439372 133.32869973 -34.52209191 136.73895404 -30 139 C-30 139.66 -30 140.32 -30 141 C-22.31381187 142.33672837 -14.67442249 142.61566789 -7 141 C-7 140.34 -7 139.68 -7 139 C-6.05125 138.773125 -5.1025 138.54625 -4.125 138.3125 C-0.80676612 137.30916286 -0.80676612 137.30916286 0.375 134.375 C0.58125 133.59125 0.7875 132.8075 1 132 C1.66 132 2.32 132 3 132 C3.10957031 131.31035156 3.21914062 130.62070313 3.33203125 129.91015625 C3.56986328 128.50056641 3.56986328 128.50056641 3.8125 127.0625 C3.96332031 126.14597656 4.11414063 125.22945313 4.26953125 124.28515625 C5.20543394 120.07609658 6.57682139 116.06598227 8 112 C11.95831809 111.97107143 15.91660917 111.95322573 19.875 111.9375 C21.56689453 111.92493164 21.56689453 111.92493164 23.29296875 111.91210938 C24.36933594 111.90888672 25.44570312 111.90566406 26.5546875 111.90234375 C27.54968262 111.89710693 28.54467773 111.89187012 29.56982422 111.88647461 C32 112 32 112 34 113 C34.19762956 119.68646662 34.3259854 125.63414522 32 132 C31.78214844 132.62132812 31.56429687 133.24265625 31.33984375 133.8828125 C29.4902924 139.03729986 27.27113792 144.01963665 25 149 C24.34 149 23.68 149 23 149 C22.814375 149.70125 22.62875 150.4025 22.4375 151.125 C18.44119035 159.11761929 8.10360296 164.82708193 0 168 C-5.849175 169.40089106 -11.83359277 169.18384318 -17.8125 169.1875 C-18.85470703 169.19974609 -19.89691406 169.21199219 -20.97070312 169.22460938 C-27.30334858 169.23653526 -32.87468797 168.61933537 -39 167 C-39 166.34 -39 165.68 -39 165 C-40.11375 164.814375 -40.11375 164.814375 -41.25 164.625 C-43.80141485 164.04513299 -45.7267573 163.26291261 -48 162 C-48 161.34 -48 160.68 -48 160 C-48.9590625 159.8453125 -48.9590625 159.8453125 -49.9375 159.6875 C-50.9584375 159.3471875 -50.9584375 159.3471875 -52 159 C-52.33 158.01 -52.66 157.02 -53 156 C-54.32482473 155.3165809 -55.65944775 154.65202905 -57 154 C-68.54758124 142.94325555 -69.71969301 128.09126928 -70.09942627 113.06587219 C-70.15840568 108.83565599 -70.16587449 104.60556659 -70.16796875 100.375 C-70.17119469 98.81429008 -70.17455967 97.25358044 -70.17805481 95.69287109 C-70.18399034 92.4456309 -70.18590034 89.1984171 -70.18530273 85.95117188 C-70.18520101 81.82983434 -70.19888893 77.70866867 -70.21607494 73.58737183 C-70.2272916 70.37165578 -70.22921906 67.15598017 -70.22869301 63.94024658 C-70.22985724 62.42229619 -70.23418911 60.90434419 -70.24202538 59.38641357 C-70.30537827 45.85838865 -70.17509897 32.88546929 -63 21 C-62.34 21 -61.68 21 -61 21 C-60.34 19.35 -59.68 17.7 -59 16 C-58.34 16 -57.68 16 -57 16 C-56.67 14.68 -56.34 13.36 -56 12 C-55.360625 11.896875 -54.72125 11.79375 -54.0625 11.6875 C-53.381875 11.460625 -52.70125 11.23375 -52 11 C-51.67 10.01 -51.34 9.02 -51 8 C-47.00544228 4.00544228 -43.3758728 3.09339786 -38 2 C-38 1.34 -38 0.68 -38 0 C-24.93248172 -2.63704873 -13.09267973 -2.39996748 0 0 Z " fill="#602E7A" transform="translate(224,27)"/>
<path d="M0 0 C3.89647268 2.85049333 7.21059888 5.3999298 9 10 C9 11.32 9 12.64 9 14 C9.66 14 10.32 14 11 14 C11.02316094 24.75276864 11.04093427 35.50553136 11.05181217 46.25831985 C11.05703277 51.251161 11.06411553 56.24398508 11.07543945 61.23681641 C11.08629751 66.0543408 11.09228305 70.87184878 11.09487724 75.68938446 C11.09672621 77.52819833 11.10033673 79.36701129 11.10573006 81.20581818 C11.11297917 83.77948454 11.1139893 86.3530829 11.11352539 88.92675781 C11.11712067 89.68848801 11.12071594 90.4502182 11.12442017 91.23503113 C11.1177902 94.62979157 11.06934423 97.75571891 10 101 C9.34 101 8.68 101 8 101 C7.9175 101.556875 7.835 102.11375 7.75 102.6875 C6.2813628 107.21579802 3.61114343 109.55662143 -0.1875 112.3125 C-7.09734331 115.54494564 -17.58900608 115.23557253 -24.7890625 113.21875 C-27.32324847 111.82181357 -28.83007037 110.33721956 -30.6875 108.125 C-31.26886719 107.44695312 -31.85023438 106.76890625 -32.44921875 106.0703125 C-37.00277076 99.99126322 -37.1493855 93.59798723 -37.16113281 86.19384766 C-37.16609772 85.43528976 -37.17106262 84.67673187 -37.17617798 83.89518738 C-37.19070776 81.40146965 -37.19758544 78.90781549 -37.203125 76.4140625 C-37.20595238 75.55797771 -37.20877975 74.70189293 -37.21169281 73.81986618 C-37.22664672 69.29136601 -37.23590072 64.7628974 -37.24023438 60.234375 C-37.24571983 55.57183583 -37.26976028 50.90958854 -37.29820633 46.24714088 C-37.31688336 42.64734059 -37.32204095 39.04761 -37.32357025 35.44776535 C-37.32658481 33.72946956 -37.33457265 32.01117465 -37.34775543 30.29292679 C-37.36492597 27.88337555 -37.36290948 25.47453 -37.35644531 23.06494141 C-37.3656601 22.36442154 -37.37487488 21.66390167 -37.3843689 20.94215393 C-37.32413255 13.72735408 -35.17377646 7.17377646 -30 2 C-21.18060088 -4.09939752 -9.48637984 -5.58022344 0 0 Z " fill="#FDFCFD" transform="translate(389,55)"/>
<path d="M0 0 C3.24983 -0.08728882 6.4993575 -0.14048658 9.75 -0.1875 C11.13058594 -0.22520508 11.13058594 -0.22520508 12.5390625 -0.26367188 C13.42851562 -0.27333984 14.31796875 -0.28300781 15.234375 -0.29296875 C16.05131836 -0.3086792 16.86826172 -0.32438965 17.70996094 -0.34057617 C20.57634189 0.08571396 21.90840308 1.02154841 24 3 C25.1110223 6.3330669 25.12862617 8.81979809 25.13371277 12.33213806 C25.13597833 12.97708035 25.13824388 13.62202263 25.14057809 14.28650862 C25.14691703 16.45135915 25.1460888 18.61614706 25.14526367 20.78100586 C25.14825521 22.33158957 25.15165773 23.88217254 25.15544128 25.43275452 C25.16428552 29.64759103 25.16661956 33.86240725 25.16725707 38.07725215 C25.1682059 41.59376731 25.17188386 45.11027772 25.17542917 48.62679106 C25.18357516 56.92168802 25.18601325 65.21657411 25.18530273 73.51147461 C25.18470173 82.07350911 25.19525774 90.63548065 25.2110464 99.19749922 C25.22411265 106.54448587 25.22948702 113.89145192 25.22884732 121.23845011 C25.22859209 125.62826249 25.23145738 130.01801892 25.24202538 134.40781975 C25.25169111 138.53558888 25.25179605 142.6632484 25.24450874 146.79102135 C25.24346103 148.30676178 25.2458368 149.82250898 25.2518692 151.33823776 C25.2595659 153.40591434 25.25496003 155.47321015 25.24723816 157.5408783 C25.24778293 158.698441 25.24832769 159.8560037 25.24888897 161.04864407 C25.00463496 163.94503803 24.5685281 165.58379133 23 168 C19.45325253 170.68770312 15.32127615 170.29658643 11.0625 170.25 C10.35931641 170.25773438 9.65613281 170.26546875 8.93164062 170.2734375 C4.86709171 170.2582002 1.58424897 169.98024805 -2 168 C-4.40093842 164.39859237 -4.24717246 162.80830514 -4.24050903 158.52705383 C-4.24221788 157.86703863 -4.24392673 157.20702342 -4.24568737 156.52700776 C-4.24898655 154.31127103 -4.23797175 152.09583587 -4.22705078 149.88012695 C-4.22648676 148.29349779 -4.22680305 146.70686811 -4.22793579 145.12023926 C-4.22851066 140.8085254 -4.21673474 136.49692236 -4.20278788 132.18523431 C-4.19030278 127.68088353 -4.18911177 123.17653033 -4.18673706 118.67216492 C-4.18051575 110.14053375 -4.16409614 101.60895371 -4.14403808 93.07734507 C-4.12169932 83.36525464 -4.11069074 73.6531618 -4.10064721 63.94105208 C-4.07973047 43.96067283 -4.04454186 23.98033963 -4 4 C-3.34 4 -2.68 4 -2 4 C-1.34 2.68 -0.68 1.36 0 0 Z " fill="#6C3081" transform="translate(281,26)"/>
<path d="M0 0 C0 0.66 0 1.32 0 2 C0.5775 2.185625 1.155 2.37125 1.75 2.5625 C5.06091694 4.67780805 6.64515886 7.39932807 8 11 C8.52016609 14.84843876 8.46931264 18.62325398 8.375 22.5 C8.37371094 23.50675781 8.37242187 24.51351563 8.37109375 25.55078125 C8.21785234 38.54224752 8.21785234 38.54224752 4.23046875 42.9609375 C-2.73362913 47.78121175 -2.73362913 47.78121175 -7 48 C-8.0725 48.0825 -9.145 48.165 -10.25 48.25 C-15.86198682 47.87586755 -20.91015239 46.64987969 -25.375 43.125 C-30.28292274 36.70694719 -30.4900246 32.09006496 -30.4375 24.1875 C-30.45748047 23.13240234 -30.47746094 22.07730469 -30.49804688 20.99023438 C-30.49339571 13.5251093 -29.51519738 7.70393281 -24.25390625 2.16015625 C-16.33321288 -2.98006277 -8.86718446 -2.89540717 0 0 Z " fill="#6D327E" transform="translate(346,248)"/>
<path d="M0 0 C2.375 2.3125 2.375 2.3125 4 5 C4.52464844 5.81082031 5.04929688 6.62164062 5.58984375 7.45703125 C7.58439964 12.46828387 7.32176503 17.0388256 7.1875 22.375 C7.16719727 23.90833984 7.16719727 23.90833984 7.14648438 25.47265625 C7.11130217 27.98232049 7.06207539 30.4908809 7 33 C6.34 33 5.68 33 5 33 C4.9175 33.886875 4.835 34.77375 4.75 35.6875 C3.85387868 39.64536918 2.98191892 41.24172499 0 44 C-6.78545498 47.28116778 -13.24782574 47.85758701 -20.5625 46.0625 C-25.18693339 44.292307 -27.18304534 41.85201419 -29.78491211 37.73022461 C-32.02681808 32.69280559 -31.70428635 27.66997221 -31.5 22.25 C-31.4896875 21.14011719 -31.479375 20.03023438 -31.46875 18.88671875 C-31.36975394 13.74511085 -31.14821701 9.733396 -29 5 C-28.34 5 -27.68 5 -27 5 C-26.34 3.68 -25.68 2.36 -25 1 C-24.34 1 -23.68 1 -23 1 C-23 0.34 -23 -0.32 -23 -1 C-14.870774 -3.65444114 -7.83259252 -3.80222938 0 0 Z " fill="#5B3277" transform="translate(164,249)"/>
<path d="M0 0 C4.52179493 3.1443574 7.20420206 5.71556209 9 11 C9.40505206 14.76356371 9.32446485 18.52921461 9.3125 22.3125 C9.32861328 23.31990234 9.34472656 24.32730469 9.36132812 25.36523438 C9.3660047 32.54377224 8.91604174 38.92195594 3.75 44.375 C-2.39271208 48.00478441 -9.20069448 49.1976409 -16.14453125 47.46484375 C-20.25685583 46.06863708 -23.39570405 44.60594824 -26 41 C-28.19249897 35.00822485 -28.33390445 29.4024988 -28.3125 23.0625 C-28.32861328 22.11181641 -28.34472656 21.16113281 -28.36132812 20.18164062 C-28.36615782 13.17374755 -27.78360957 6.93825455 -22.75 1.625 C-15.58977933 -2.60603949 -7.6241352 -3.4943953 0 0 Z " fill="#593176" transform="translate(591,248)"/>
<path d="M0 0 C1.25780273 -0.01836914 1.25780273 -0.01836914 2.54101562 -0.03710938 C8.80247804 -0.05177322 15.14979363 0.19749759 20.125 4.5 C23.58770323 7.96270323 24.66788421 10.46912414 25.078125 15.34375 C25.07296875 16.4471875 25.0678125 17.550625 25.0625 18.6875 C25.07023438 20.34265625 25.07023438 20.34265625 25.078125 22.03125 C24.71731257 26.31855066 24.0017601 29.17313109 20.6875 32 C20.06875 32.391875 19.45 32.78375 18.8125 33.1875 C19.22457985 36.07205894 19.66966381 37.05764892 21.875 39.0625 C23.8125 41.1875 23.8125 41.1875 24.1875 44.3125 C23.8125 47.1875 23.8125 47.1875 21.8125 49.1875 C19 49.625 19 49.625 15.8125 49.1875 C13.25 47 13.25 47 10.8125 44.1875 C9.884375 43.300625 8.95625 42.41375 8 41.5 C5.8125 39.1875 5.8125 39.1875 5.8125 37.1875 C3.1725 37.1875 0.5325 37.1875 -2.1875 37.1875 C-2.15269531 37.95835937 -2.11789062 38.72921875 -2.08203125 39.5234375 C-2.05496094 40.52632813 -2.02789063 41.52921875 -2 42.5625 C-1.96519531 43.56023437 -1.93039062 44.55796875 -1.89453125 45.5859375 C-1.99121094 46.44445312 -2.08789062 47.30296875 -2.1875 48.1875 C-5.1875 50.1875 -5.1875 50.1875 -8.375 49.8125 C-9.303125 49.60625 -10.23125 49.4 -11.1875 49.1875 C-12.09916194 46.45251419 -12.3138302 44.85235393 -12.31689453 42.0390625 C-12.32004669 41.20810059 -12.32319885 40.37713867 -12.32644653 39.52099609 C-12.3244223 38.62719238 -12.32239807 37.73338867 -12.3203125 36.8125 C-12.32126923 35.89162598 -12.32222595 34.97075195 -12.32321167 34.02197266 C-12.3238921 32.07519462 -12.32204734 30.1284143 -12.31787109 28.18164062 C-12.31252093 25.19916699 -12.31782071 22.21684395 -12.32421875 19.234375 C-12.32355794 17.34374967 -12.32227673 15.45312443 -12.3203125 13.5625 C-12.32233673 12.66869629 -12.32436096 11.77489258 -12.32644653 10.85400391 C-12.32329437 10.02304199 -12.32014221 9.19208008 -12.31689453 8.3359375 C-12.31609894 7.60552246 -12.31530334 6.87510742 -12.31448364 6.12255859 C-12.1875 4.1875 -12.1875 4.1875 -11.1875 1.1875 C-7.7238303 -0.54433485 -3.81584556 0.0028669 0 0 Z " fill="#502F72" transform="translate(618.1875,245.8125)"/>
<path d="M0 0 C0.70125 0.66 1.4025 1.32 2.125 2 C2.125 2.66 2.125 3.32 2.125 4 C2.785 4 3.445 4 4.125 4 C6.65463743 7.82711283 6.41414541 11.7768096 6.390625 16.1953125 C6.39349518 17.37829422 6.39349518 17.37829422 6.39642334 18.58517456 C6.39778146 20.24770427 6.39411106 21.91024471 6.38574219 23.57275391 C6.37500858 26.12296179 6.38566446 28.67246981 6.3984375 31.22265625 C6.3971164 32.83854323 6.39455503 34.45442976 6.390625 36.0703125 C6.39467346 36.83489777 6.39872192 37.59948303 6.40289307 38.38723755 C6.35494091 43.77005909 6.35494091 43.77005909 4.125 46 C0.5 45.625 0.5 45.625 -2.875 45 C-2.875 40.71 -2.875 36.42 -2.875 32 C-8.815 32 -14.755 32 -20.875 32 C-20.7925 33.753125 -20.71 35.50625 -20.625 37.3125 C-20.484375 40.30078125 -20.484375 40.30078125 -20.875 43 C-22.7265625 44.87109375 -22.7265625 44.87109375 -24.875 46 C-27.57309776 45.74303831 -29.45850693 45.20824654 -31.875 44 C-31.97472601 39.46515136 -32.04686655 34.9309568 -32.09472656 30.39526367 C-32.11470121 28.85608789 -32.14189097 27.31698662 -32.17675781 25.77807617 C-32.55862726 8.47602087 -32.55862726 8.47602087 -27.875 2 C-19.98872741 -5.49704545 -9.02744383 -6.27996093 0 0 Z " fill="#64327A" transform="translate(248.875,250)"/>
<path d="M0 0 C2.77131114 2.0449102 3.13393241 2.56072785 4.125 6.0625 C4.145625 6.949375 4.16625 7.83625 4.1875 8.75 C4.8475 8.75 5.5075 8.75 6.1875 8.75 C6.26154737 13.69788314 6.31605246 18.64544524 6.35229492 23.59375 C6.36740003 25.2777264 6.38788546 26.96166335 6.41381836 28.64550781 C6.45012721 31.06324993 6.46720847 33.48047292 6.48046875 35.8984375 C6.50369453 37.03132706 6.50369453 37.03132706 6.52738953 38.18710327 C6.52807617 40.31005859 6.52807617 40.31005859 6.1875 43.75 C3.1875 45.75 3.1875 45.75 0.0625 45.4375 C-2.8125 44.75 -2.8125 44.75 -3.8125 43.75 C-3.95605117 39.74779347 -3.85466403 35.75558317 -3.8125 31.75 C-9.7525 31.75 -15.6925 31.75 -21.8125 31.75 C-21.791875 33.338125 -21.77125 34.92625 -21.75 36.5625 C-21.70914697 39.70818308 -21.80753148 41.73509443 -22.8125 44.75 C-26.68743656 45.82637127 -28.33702927 45.69566951 -31.8125 43.75 C-31.887057 39.03608601 -31.94129273 34.32252071 -31.97729492 29.6081543 C-31.99231466 28.00685644 -32.01273663 26.40559925 -32.03881836 24.80444336 C-32.07550438 22.49322429 -32.09229435 20.18255244 -32.10546875 17.87109375 C-32.12095261 17.16351425 -32.13643646 16.45593475 -32.15238953 15.72691345 C-32.15432026 9.93131636 -31.0372077 5.04323052 -26.91015625 0.7890625 C-26.23855469 0.32242188 -25.56695312 -0.14421875 -24.875 -0.625 C-24.20597656 -1.10710937 -23.53695313 -1.58921875 -22.84765625 -2.0859375 C-15.34662224 -6.37635618 -6.94669953 -4.40004797 0 0 Z " fill="#69347E" transform="translate(452.8125,250.25)"/>
<path d="M0 0 C1.20269531 -0.00128906 2.40539062 -0.00257813 3.64453125 -0.00390625 C4.90652344 -0.00003906 6.16851563 0.00382813 7.46875 0.0078125 C9.36173828 0.00201172 9.36173828 0.00201172 11.29296875 -0.00390625 C12.49566406 -0.00261719 13.69835937 -0.00132812 14.9375 0 C16.04544922 0.00112793 17.15339844 0.00225586 18.29492188 0.00341797 C20.96875 0.1328125 20.96875 0.1328125 22.96875 1.1328125 C22.96875 3.7728125 22.96875 6.4128125 22.96875 9.1328125 C20.56815183 10.33311158 19.07514351 10.24740993 16.3984375 10.23046875 C15.50253906 10.22724609 14.60664062 10.22402344 13.68359375 10.22070312 C12.74644531 10.21232422 11.80929687 10.20394531 10.84375 10.1953125 C9.42642578 10.18854492 9.42642578 10.18854492 7.98046875 10.18164062 C5.6432023 10.16983625 3.30596831 10.15190049 0.96875 10.1328125 C0.96875 13.1028125 0.96875 16.0728125 0.96875 19.1328125 C2.02835938 19.09800781 3.08796875 19.06320312 4.1796875 19.02734375 C5.56769252 18.99920851 6.95571463 18.97190807 8.34375 18.9453125 C9.04242187 18.92017578 9.74109375 18.89503906 10.4609375 18.86914062 C12.4921875 18.83984375 12.4921875 18.83984375 15.96875 19.1328125 C18.3982016 22.7769899 18.13054575 24.84522522 17.96875 29.1328125 C14.90341836 30.66547832 11.70120728 30.23557721 8.34375 30.1953125 C7.63734375 30.19080078 6.9309375 30.18628906 6.203125 30.18164062 C4.45829725 30.16985125 2.713513 30.15191574 0.96875 30.1328125 C0.96875 33.4328125 0.96875 36.7328125 0.96875 40.1328125 C2.38929688 40.10960937 3.80984375 40.08640625 5.2734375 40.0625 C7.13020309 40.04374479 8.98697435 40.02554433 10.84375 40.0078125 C11.78089844 39.99105469 12.71804688 39.97429687 13.68359375 39.95703125 C14.57949219 39.95058594 15.47539063 39.94414062 16.3984375 39.9375 C17.22585449 39.92702637 18.05327148 39.91655273 18.90576172 39.90576172 C20.96875 40.1328125 20.96875 40.1328125 22.96875 42.1328125 C23.09375 45.7578125 23.09375 45.7578125 22.96875 49.1328125 C20.28440123 50.47498689 18.19371866 50.26242935 15.19140625 50.265625 C14.03833984 50.26691406 12.88527344 50.26820313 11.69726562 50.26953125 C10.48748047 50.26566406 9.27769531 50.26179688 8.03125 50.2578125 C6.22237305 50.26361328 6.22237305 50.26361328 4.37695312 50.26953125 C2.64541992 50.26759766 2.64541992 50.26759766 0.87890625 50.265625 C-0.18191162 50.26449707 -1.24272949 50.26336914 -2.33569336 50.26220703 C-5.03125 50.1328125 -5.03125 50.1328125 -8.03125 49.1328125 C-8.94291194 46.39782669 -9.1575802 44.79766643 -9.16064453 41.984375 C-9.16379669 41.15341309 -9.16694885 40.32245117 -9.17019653 39.46630859 C-9.1681723 38.57250488 -9.16614807 37.67870117 -9.1640625 36.7578125 C-9.16501923 35.83693848 -9.16597595 34.91606445 -9.16696167 33.96728516 C-9.1676421 32.02050712 -9.16579734 30.0737268 -9.16162109 28.12695312 C-9.15627093 25.14447949 -9.16157071 22.16215645 -9.16796875 19.1796875 C-9.16730794 17.28906217 -9.16602673 15.39843693 -9.1640625 13.5078125 C-9.16608673 12.61400879 -9.16811096 11.72020508 -9.17019653 10.79931641 C-9.16704437 9.96835449 -9.16389221 9.13739258 -9.16064453 8.28125 C-9.15984894 7.55083496 -9.15905334 6.82041992 -9.15823364 6.06787109 C-9.03125 4.1328125 -9.03125 4.1328125 -8.03125 1.1328125 C-5.28600448 -0.23981026 -3.06905705 0.0031244 0 0 Z " fill="#4E2F71" transform="translate(658.03125,245.8671875)"/>
<path d="M0 0 C0 0.66 0 1.32 0 2 C0.5775 2.20625 1.155 2.4125 1.75 2.625 C4.96520678 4.58984859 6.18739782 6.69916096 8 10 C8.36034906 12.93277057 8.516866 15.47097682 8.4609375 18.390625 C8.45956284 19.56936188 8.45956284 19.56936188 8.4581604 20.77191162 C8.45214757 22.4225473 8.43647158 24.07317326 8.41162109 25.72363281 C8.37490918 28.25626508 8.37060345 30.78744082 8.37109375 33.3203125 C8.3612692 34.92709603 8.3496151 36.53386965 8.3359375 38.140625 C8.33371185 38.89893616 8.33148621 39.65724731 8.32919312 40.4385376 C8.23222129 45.76777871 8.23222129 45.76777871 6 48 C0.43181818 47.43181818 0.43181818 47.43181818 -1 46 C-1.11004302 43.69458928 -1.15595399 41.38607538 -1.17578125 39.078125 C-1.19899078 37.64581882 -1.22310857 36.21352712 -1.24804688 34.78125 C-1.28309158 32.51878339 -1.31245926 30.25684494 -1.32592773 27.99414062 C-1.34145848 25.8131455 -1.381709 23.63370626 -1.42578125 21.453125 C-1.44036377 20.14504883 -1.45494629 18.83697266 -1.4699707 17.48925781 C-2.0781483 13.48553866 -3.11929634 11.79863422 -6 9 C-8.5802226 8.39996385 -8.5802226 8.39996385 -11.25 8.6875 C-12.14203125 8.73261719 -13.0340625 8.77773438 -13.953125 8.82421875 C-14.96632813 8.91123047 -14.96632813 8.91123047 -16 9 C-16 9.66 -16 10.32 -16 11 C-16.66 11 -17.32 11 -18 11 C-18.0093457 12.01425049 -18.01869141 13.02850098 -18.02832031 14.07348633 C-18.06819362 17.83662842 -18.13394342 21.5989506 -18.20751953 25.36157227 C-18.23574489 26.99004585 -18.25695172 28.61865683 -18.27099609 30.24731445 C-18.29240532 32.58876971 -18.33903964 34.92857045 -18.390625 37.26953125 C-18.39246796 38.36186821 -18.39246796 38.36186821 -18.39434814 39.47627258 C-18.48965285 42.76518557 -18.57540027 44.54801923 -20.87402344 46.99487305 C-23.679339 48.32118037 -25.10115622 47.99170972 -28 47 C-30.78834252 44.21165748 -30.32383258 41.60048783 -30.3359375 37.8671875 C-30.3425943 37.1565213 -30.3492511 36.4458551 -30.35610962 35.71365356 C-30.36624594 34.20561308 -30.37092634 32.69752764 -30.37060547 31.18945312 C-30.37494461 28.90417041 -30.41115296 26.62087381 -30.44921875 24.3359375 C-30.50944738 16.74520237 -30.55796477 10.40513996 -26 4 C-24 2.16015625 -24 2.16015625 -22 1.0625 C-21.34 0.68222656 -20.68 0.30195313 -20 -0.08984375 C-13.25871302 -3.15765599 -6.82385091 -2.22819621 0 0 Z " fill="#6B327E" transform="translate(389,248)"/>
<path d="M0 0 C3.64986895 2.17351747 5.75570512 4.07516938 6.875 8.3125 C6.91625 9.199375 6.9575 10.08625 7 11 C7.66 11 8.32 11 9 11 C9.07404737 15.94788314 9.12855246 20.89544524 9.16479492 25.84375 C9.17990003 27.5277264 9.20038546 29.21166335 9.22631836 30.89550781 C9.26262721 33.31324993 9.27970847 35.73047292 9.29296875 38.1484375 C9.31619453 39.28132706 9.31619453 39.28132706 9.33988953 40.43710327 C9.34057617 42.56005859 9.34057617 42.56005859 9 46 C6 48 6 48 2.875 47.6875 C0 47 0 47 -1 46 C-1.11004302 43.69458928 -1.15595399 41.38607538 -1.17578125 39.078125 C-1.19899078 37.64581882 -1.22310857 36.21352712 -1.24804688 34.78125 C-1.28309158 32.51878339 -1.31245926 30.25684494 -1.32592773 27.99414062 C-1.34145848 25.8131455 -1.381709 23.63370626 -1.42578125 21.453125 C-1.44036377 20.14504883 -1.45494629 18.83697266 -1.4699707 17.48925781 C-2.07759994 13.48914861 -3.1439109 11.81335707 -6 9 C-8.2348289 8.25642658 -8.2348289 8.25642658 -10.5625 8.4375 C-11.32691406 8.43621094 -12.09132813 8.43492187 -12.87890625 8.43359375 C-15.10141602 8.84001222 -15.10141602 8.84001222 -16.6027832 10.57788086 C-18.52095421 13.90309046 -18.41853904 16.49406635 -18.4765625 20.3203125 C-18.49993179 21.37011795 -18.49993179 21.37011795 -18.52377319 22.44113159 C-18.57116703 24.66907692 -18.59901693 26.89671094 -18.625 29.125 C-18.66150893 31.36021105 -18.70212104 33.59524635 -18.74765015 35.83029175 C-18.78725556 37.853028 -18.81505278 39.87598512 -18.84228516 41.89892578 C-19 45 -19 45 -20 47 C-22.875 47.75 -22.875 47.75 -26 48 C-26.99 47.34 -27.98 46.68 -29 46 C-29.2923893 43.43291778 -29.3962292 41.11054934 -29.36328125 38.54296875 C-29.36402901 37.43300285 -29.36402901 37.43300285 -29.36479187 36.3006134 C-29.36244939 34.73285238 -29.35271052 33.16508775 -29.33618164 31.59741211 C-29.31269333 29.20717351 -29.31560597 26.81805824 -29.32226562 24.42773438 C-29.31668513 22.90363922 -29.30957293 21.37954876 -29.30078125 19.85546875 C-29.30169266 19.14384079 -29.30260406 18.43221283 -29.30354309 17.69902039 C-29.24698719 13.70076024 -28.75961795 10.60286044 -27 7 C-26.34 7 -25.68 7 -25 7 C-24.67 5.68 -24.34 4.36 -24 3 C-22.68 2.67 -21.36 2.34 -20 2 C-20 1.34 -20 0.68 -20 0 C-12.99228879 -2.73471657 -7.03781023 -2.6871639 0 0 Z " fill="#502E71" transform="translate(119,248)"/>
<path d="M0 0 C0 0.66 0 1.32 0 2 C0.763125 2.20625 1.52625 2.4125 2.3125 2.625 C5.96505426 4.49374869 6.50450899 6.20427187 8 10 C8.27074032 12.87535101 8.39848918 15.52263238 8.36328125 18.390625 C8.36402901 19.56936188 8.36402901 19.56936188 8.36479187 20.77191162 C8.36246272 22.42251126 8.352803 24.07311522 8.33618164 25.72363281 C8.31244208 28.25617932 8.31564725 30.78768188 8.32226562 33.3203125 C8.31669307 34.92708963 8.30958585 36.53386233 8.30078125 38.140625 C8.30169266 38.89893616 8.30260406 39.65724731 8.30354309 40.4385376 C8.2310858 45.7689142 8.2310858 45.7689142 6 48 C2.375 47.625 2.375 47.625 -1 47 C-1.0093457 46.02651611 -1.01869141 45.05303223 -1.02832031 44.05004883 C-1.06831092 40.4247528 -1.13409325 36.80029737 -1.20751953 33.17553711 C-1.23567694 31.60924103 -1.25691753 30.04280425 -1.27099609 28.47631836 C-1.29249967 26.21915934 -1.33918189 23.96368261 -1.390625 21.70703125 C-1.39185364 21.01100296 -1.39308228 20.31497467 -1.39434814 19.59785461 C-1.53648373 14.83823624 -2.57161703 12.3085315 -6 9 C-8.5802226 8.39996385 -8.5802226 8.39996385 -11.25 8.6875 C-12.14203125 8.73261719 -13.0340625 8.77773438 -13.953125 8.82421875 C-14.96632813 8.91123047 -14.96632813 8.91123047 -16 9 C-16 9.66 -16 10.32 -16 11 C-16.99 11.495 -16.99 11.495 -18 12 C-18.0093457 12.98395752 -18.01869141 13.96791504 -18.02832031 14.98168945 C-18.0681988 18.6330286 -18.1339498 22.28352319 -18.20751953 25.93432617 C-18.23574193 27.51429392 -18.25695025 29.09440318 -18.27099609 30.67456055 C-18.29240965 32.94653845 -18.33904534 35.21681271 -18.390625 37.48828125 C-18.39246796 38.54780754 -18.39246796 38.54780754 -18.39434814 39.6287384 C-18.49114188 42.87076004 -18.60315821 44.57875711 -20.87011719 46.98510742 C-23.65002894 48.30973983 -25.11686847 47.93506969 -28 47 C-29.91904591 45.08095409 -29.18712624 41.54495407 -29.203125 38.9296875 C-29.20882507 38.21523468 -29.21452515 37.50078186 -29.22039795 36.76467896 C-29.22986605 35.24645474 -29.23638908 33.72820981 -29.24023438 32.20996094 C-29.2498736 29.9052225 -29.28084985 27.60140133 -29.3125 25.296875 C-29.31903672 23.82031778 -29.32428456 22.34375419 -29.328125 20.8671875 C-29.3404718 20.18461884 -29.3528186 19.50205017 -29.36553955 18.79879761 C-29.33303648 11.68400617 -26.64266182 5.3955259 -22 0 C-14.82818732 -3.27272675 -7.2605629 -2.37079605 0 0 Z " fill="#503072" transform="translate(75,248)"/>
<path d="M0 0 C0.33 1.32 0.66 2.64 1 4 C1.66 4 2.32 4 3 4 C3.66 6.97 4.32 9.94 5 13 C5.66 13 6.32 13 7 13 C7.50559908 14.43554025 8.0042749 15.8735202 8.5 17.3125 C8.7784375 18.11300781 9.056875 18.91351563 9.34375 19.73828125 C10 22 10 22 10 25 C10.66 25 11.32 25 12 25 C12 25.99 12 26.98 12 28 C12.66 28 13.32 28 14 28 C15.49140021 24.37802806 16.7874262 20.72433382 18 17 C18.66 17 19.32 17 20 17 C20.12375 15.96875 20.2475 14.9375 20.375 13.875 C20.93889814 10.37883154 21.78682059 7.31602373 23 4 C23.66 4 24.32 4 25 4 C25.33 2.68 25.66 1.36 26 0 C29.28696233 -0.79953138 30.71023192 -1.09658936 34 0 C34.82535334 7.01550336 32.61931882 11.53324338 29.53515625 17.7890625 C27.62579565 21.78268697 26.29003978 25.77153629 25 30 C24.34 30 23.68 30 23 30 C22.87625 31.03125 22.7525 32.0625 22.625 33.125 C22.06110186 36.62116846 21.21317941 39.68397627 20 43 C19.34 43 18.68 43 18 43 C17.67 44.65 17.34 46.3 17 48 C13.71303767 48.79953138 12.28976808 49.09658936 9 48 C8.505 45.525 8.505 45.525 8 43 C7.34 43 6.68 43 6 43 C5.49242138 41.58603098 4.99425075 40.16868271 4.5 38.75 C4.2215625 37.96109375 3.943125 37.1721875 3.65625 36.359375 C3 34 3 34 3 30 C2.34 30 1.68 30 1 30 C0.34 27.03 -0.32 24.06 -1 21 C-1.66 21 -2.32 21 -3 21 C-3.27714844 20.14535156 -3.55429688 19.29070312 -3.83984375 18.41015625 C-4.38318359 16.75306641 -4.38318359 16.75306641 -4.9375 15.0625 C-5.29714844 13.96035156 -5.65679687 12.85820312 -6.02734375 11.72265625 C-6.73856668 9.11876525 -6.73856668 9.11876525 -8 8 C-8.14115161 5.32941149 -8.04247107 2.67567762 -8 0 C-4.71023192 -1.09658936 -3.28696233 -0.79953138 0 0 Z " fill="#61347A" transform="translate(181,247)"/>
<path d="M0 0 C3.47697289 2.76577389 4.82302565 4.26682054 5.875 8.625 C6 12 6 12 5 15 C1.8125 15.3125 1.8125 15.3125 -2 15 C-4.875 12.5625 -4.875 12.5625 -7 10 C-8.89128342 8.10871658 -11.57067726 8.7633148 -14.08984375 8.671875 C-14.72019531 8.78015625 -15.35054687 8.8884375 -16 9 C-16.99 10.485 -16.99 10.485 -18 12 C-18.66 12 -19.32 12 -20 12 C-20 19.26 -20 26.52 -20 34 C-19.01 34.33 -18.02 34.66 -17 35 C-16.67 35.66 -16.34 36.32 -16 37 C-10.39131732 37.69070617 -10.39131732 37.69070617 -5.27734375 35.8515625 C-4.79394531 35.38492188 -4.31054688 34.91828125 -3.8125 34.4375 C-1 32 -1 32 2.375 32.1875 C3.24125 32.455625 4.1075 32.72375 5 33 C5.79466368 35.78132288 6.05733799 37.70614282 5.5 40.5625 C3.0586363 44.52971601 -0.6885458 46.10524353 -4.9375 47.75 C-11.67280048 48.56640006 -17.94298144 48.31117015 -24 45 C-30.36567359 38.60408568 -30.2363622 31.8180409 -30.3125 23.25 C-30.34150391 22.1775 -30.37050781 21.105 -30.40039062 20 C-30.45315824 13.40810664 -30.01011795 9.31358436 -26 4 C-24.21875 2.2578125 -24.21875 2.2578125 -22.5 1.125 C-21.9328125 0.73570312 -21.365625 0.34640625 -20.78125 -0.0546875 C-14.90345338 -3.17404448 -5.72146122 -3.43287673 0 0 Z " fill="#5F3479" transform="translate(551,248)"/>
<path d="M0 0 C1.05049278 -0.00143509 1.05049278 -0.00143509 2.12220764 -0.00289917 C3.60417775 -0.00357996 5.08615085 -0.00173269 6.56811523 0.00244141 C8.83519206 0.00778313 11.10207004 0.00249721 13.36914062 -0.00390625 C14.80859419 -0.00324529 16.24804763 -0.00196377 17.6875 0 C18.99968506 0.00112793 20.31187012 0.00225586 21.66381836 0.00341797 C24.91015625 0.1328125 24.91015625 0.1328125 27.91015625 1.1328125 C28.40515625 4.5978125 28.40515625 4.5978125 28.91015625 8.1328125 C24.91015625 10.1328125 24.91015625 10.1328125 14.91015625 10.1328125 C14.91015625 22.6728125 14.91015625 35.2128125 14.91015625 48.1328125 C10.55790176 50.30893975 9.43967155 50.24002735 4.91015625 49.1328125 C3.91015625 48.1328125 3.91015625 48.1328125 3.79663086 44.53100586 C3.79679 42.92821394 3.80248562 41.3254169 3.8125 39.72265625 C3.81391495 38.88062149 3.8153299 38.03858673 3.81678772 37.17103577 C3.82240362 34.47075915 3.83495877 31.77056422 3.84765625 29.0703125 C3.8526692 27.24414182 3.85723246 25.41796984 3.86132812 23.59179688 C3.87237821 19.10543708 3.88965346 14.61913866 3.91015625 10.1328125 C2.77126953 10.18501953 2.77126953 10.18501953 1.609375 10.23828125 C0.61550781 10.26535156 -0.37835938 10.29242188 -1.40234375 10.3203125 C-2.38847656 10.35511719 -3.37460937 10.38992188 -4.390625 10.42578125 C-7.08984375 10.1328125 -7.08984375 10.1328125 -8.95703125 8.81640625 C-10.08984375 7.1328125 -10.08984375 7.1328125 -9.90234375 4.0078125 C-9.63421875 3.0590625 -9.36609375 2.1103125 -9.08984375 1.1328125 C-6.09201664 -0.36610106 -3.33977586 0.00287328 0 0 Z " fill="#69347E" transform="translate(268.08984375,245.8671875)"/>
<path d="M0 0 C0.72252457 -0.00570007 1.44504913 -0.01140015 2.18946838 -0.01727295 C3.71850113 -0.02672218 5.24755424 -0.03325663 6.77661133 -0.03710938 C9.11640866 -0.04682312 11.45533048 -0.07784877 13.79492188 -0.109375 C15.2799427 -0.11590437 16.7649698 -0.1211551 18.25 -0.125 C18.95007675 -0.1373468 19.6501535 -0.1496936 20.3714447 -0.16241455 C23.25930393 -0.1491627 25.23566961 -0.1002883 27.67602539 1.52441406 C29.2802338 4.17662301 28.39828884 6.31133258 27.69140625 9.203125 C24.67650068 10.20809352 22.64958933 10.30647803 19.50390625 10.265625 C18.60285156 10.25660156 17.70179688 10.24757813 16.7734375 10.23828125 C16.08636719 10.22667969 15.39929688 10.21507812 14.69140625 10.203125 C14.71235352 11.30825439 14.73330078 12.41338379 14.75488281 13.55200195 C14.82725265 17.65001481 14.87319461 21.74797114 14.91113281 25.84643555 C14.93125528 27.62062069 14.95855655 29.39473946 14.99316406 31.16870117 C15.04165617 33.71810267 15.06436778 36.26662795 15.08203125 38.81640625 C15.10267639 39.61025223 15.12332153 40.40409821 15.14459229 41.22200012 C15.14593212 44.50608436 15.08820253 46.66574074 13.10449219 49.35229492 C10.69140625 50.203125 10.69140625 50.203125 3.69140625 48.203125 C3.69140625 35.663125 3.69140625 23.123125 3.69140625 10.203125 C0.06140625 10.203125 -3.56859375 10.203125 -7.30859375 10.203125 C-8.29859375 9.213125 -9.28859375 8.223125 -10.30859375 7.203125 C-10.12109375 4.078125 -10.12109375 4.078125 -9.30859375 1.203125 C-6.32837563 -0.28698406 -3.26935184 0.01978967 0 0 Z " fill="#633379" transform="translate(471.30859375,245.796875)"/>
<path d="M0 0 C4.52179493 3.1443574 7.20420206 5.71556209 9 11 C9.40505206 14.76356371 9.32446485 18.52921461 9.3125 22.3125 C9.32861328 23.31990234 9.34472656 24.32730469 9.36132812 25.36523438 C9.36538651 31.59485527 8.77885862 36.38301801 6 42 C3.3125 43 3.3125 43 1 43 C1 42.34 1 41.68 1 41 C0.2265625 40.38125 0.2265625 40.38125 -0.5625 39.75 C-1.036875 39.1725 -1.51125 38.595 -2 38 C-1.68596433 35.99687926 -1.34769694 33.99755299 -1 32 C-0.85151215 29.1032699 -0.85998723 26.21246715 -0.875 23.3125 C-0.87113281 22.55388672 -0.86726562 21.79527344 -0.86328125 21.01367188 C-0.83764626 15.36601139 -0.83764626 15.36601139 -3.14453125 10.32421875 C-5.94430031 8.32606778 -8.30306368 8.71197219 -11.6875 8.8125 C-12.86699219 8.83957031 -14.04648437 8.86664063 -15.26171875 8.89453125 C-16.16535156 8.92933594 -17.06898438 8.96414063 -18 9 C-18.33 9.99 -18.66 10.98 -19 12 C-21.0625 13.1875 -21.0625 13.1875 -23 14 C-23.08114106 12.22992286 -23.13925505 10.45877902 -23.1875 8.6875 C-23.22230469 7.70136719 -23.25710938 6.71523437 -23.29296875 5.69921875 C-23 3 -23 3 -21.69140625 1.21875 C-15.43779447 -3.28731669 -6.75898068 -3.09786614 0 0 Z " fill="#563175" transform="translate(591,248)"/>
<path d="M0 0 C0.75925781 -0.06058594 1.51851563 -0.12117187 2.30078125 -0.18359375 C5.3122087 0.6000674 6.83898165 2.09511896 8.70385742 4.55004883 C10.54247631 8.0780614 10.32807378 11.60546723 10.1875 15.5 C10.19136719 16.68432617 10.19136719 16.68432617 10.1953125 17.89257812 C10.11765372 22.52492461 9.67229077 25.68456455 6.6875 29.4375 C3.24008453 31.16120774 -0.54285339 30.94056672 -4.3125 30.4375 C-6.81410818 28.56129387 -7.93195652 27.19858697 -9.3125 24.4375 C-9.46409403 21.67382418 -9.54391393 18.95217843 -9.5625 16.1875 C-9.583125 15.43597656 -9.60375 14.68445313 -9.625 13.91015625 C-9.65917679 9.01433136 -9.02563815 5.67842468 -6.3125 1.4375 C-4.05265891 0.30757945 -2.51523513 0.13950044 0 0 Z " fill="#F7F1F7" transform="translate(335.3125,255.5625)"/>
<path d="M0 0 C2.97 0 5.94 0 9 0 C9.33 0.99 9.66 1.98 10 3 C10.99 3.33 11.98 3.66 13 4 C14.26864164 7.80592493 14.22320072 11.40870641 14.25 15.375 C14.270625 16.13039063 14.29125 16.88578125 14.3125 17.6640625 C14.34473434 22.27357365 13.98163536 25.25124486 11 29 C7.55258453 30.72370774 3.76964661 30.50306672 0 30 C-2.50160818 28.12379387 -3.61945652 26.76108697 -5 24 C-5.12479416 21.19648462 -5.18517138 18.4286626 -5.1875 15.625 C-5.19974609 14.85671875 -5.21199219 14.0884375 -5.22460938 13.296875 C-5.24272755 6.31533639 -5.24272755 6.31533639 -3 3 C-2.34 3 -1.68 3 -1 3 C-0.67 2.01 -0.34 1.02 0 0 Z " fill="#F6F2F7" transform="translate(577,256)"/>
<path d="M0 0 C3.11416729 0.62406924 4.82721802 2.12320945 6.96875 4.39453125 C8.18825118 8.0530348 8.19128359 11.45856694 8.21875 15.26953125 C8.239375 15.97722656 8.26 16.68492187 8.28125 17.4140625 C8.31514216 21.96408458 7.72866053 24.76377517 4.96875 28.39453125 C2.96875 30.39453125 2.96875 30.39453125 0.8046875 30.58984375 C-0.00742188 30.56664062 -0.81953125 30.5434375 -1.65625 30.51953125 C-2.47351563 30.50148438 -3.29078125 30.4834375 -4.1328125 30.46484375 C-4.75929687 30.44164062 -5.38578125 30.4184375 -6.03125 30.39453125 C-6.36125 29.40453125 -6.69125 28.41453125 -7.03125 27.39453125 C-8.02125 27.06453125 -9.01125 26.73453125 -10.03125 26.39453125 C-11.66430288 23.12842548 -11.17401152 19.54189898 -11.15625 15.95703125 C-11.16011719 15.18037109 -11.16398438 14.40371094 -11.16796875 13.60351562 C-11.16023603 9.11467409 -11.13329169 5.93738961 -8.46875 2.20703125 C-5.61408439 0.08433118 -3.53322932 -0.17797984 0 0 Z " fill="#FAF6FA" transform="translate(153.03125,255.60546875)"/>
<path d="M0 0 C-0.99 1.485 -0.99 1.485 -2 3 C-2.99 3 -3.98 3 -5 3 C-5 3.99 -5 4.98 -5 6 C-3.7934375 6.185625 -3.7934375 6.185625 -2.5625 6.375 C-1.2940625 6.684375 -1.2940625 6.684375 0 7 C0.33 7.66 0.66 8.32 1 9 C0.34 9 -0.32 9 -1 9 C-1 9.66 -1 10.32 -1 11 C-1.66 11 -2.32 11 -3 11 C-3.0093457 12.01425049 -3.01869141 13.02850098 -3.02832031 14.07348633 C-3.06819362 17.83662842 -3.13394342 21.5989506 -3.20751953 25.36157227 C-3.23574489 26.99004585 -3.25695172 28.61865683 -3.27099609 30.24731445 C-3.29240532 32.58876971 -3.33903964 34.92857045 -3.390625 37.26953125 C-3.39246796 38.36186821 -3.39246796 38.36186821 -3.39434814 39.47627258 C-3.48965285 42.76518557 -3.57540027 44.54801923 -5.87402344 46.99487305 C-8.679339 48.32118037 -10.10115622 47.99170972 -13 47 C-15.78834252 44.21165748 -15.32383258 41.60048783 -15.3359375 37.8671875 C-15.3425943 37.1565213 -15.3492511 36.4458551 -15.35610962 35.71365356 C-15.36624594 34.20561308 -15.37092634 32.69752764 -15.37060547 31.18945312 C-15.37494461 28.90417041 -15.41115296 26.62087381 -15.44921875 24.3359375 C-15.50951566 16.74326893 -15.55636285 10.40763462 -11 4 C-8.96484375 2.08984375 -8.96484375 2.08984375 -6.9375 0.9375 C-6.26589844 0.53402344 -5.59429687 0.13054687 -4.90234375 -0.28515625 C-3 -1 -3 -1 0 0 Z " fill="#723B81" transform="translate(374,248)"/>
<path d="M0 0 C1 1 1 1 1.12025452 2.86659241 C1.1169236 4.08903908 1.1169236 4.08903908 1.11352539 5.33618164 C1.11344986 6.2570607 1.11337433 7.17793976 1.11329651 8.12672424 C1.10813522 9.12775681 1.10297394 10.12878937 1.09765625 11.16015625 C1.0962413 12.17975937 1.09482635 13.19936249 1.09336853 14.24986267 C1.08775097 17.52077107 1.0751955 20.79161213 1.0625 24.0625 C1.05748726 26.27408756 1.05292396 28.48567618 1.04882812 30.69726562 C1.03777584 36.13153357 1.02102063 41.56576197 1 47 C-1.75 48.125 -1.75 48.125 -5 49 C-7.203125 48.0546875 -7.203125 48.0546875 -9 47 C-9.02529825 40.62793828 -9.04284496 34.25588946 -9.05493164 27.88378906 C-9.05996891 25.71483883 -9.06679891 23.545892 -9.07543945 21.37695312 C-9.08753151 18.26431437 -9.09323428 15.1517204 -9.09765625 12.0390625 C-9.10281754 11.065065 -9.10797882 10.0910675 -9.11329651 9.08755493 C-9.11337204 8.18677216 -9.11344757 7.28598938 -9.11352539 6.35791016 C-9.115746 5.56293121 -9.11796661 4.76795227 -9.12025452 3.94888306 C-9 2 -9 2 -8 0 C-4.69676014 -1.10107995 -3.29495231 -0.86709271 0 0 Z " fill="#67317A" transform="translate(310,247)"/>
<path d="M0 0 C1.56878965 1.56878965 1.14273731 3.12507809 1.16113281 5.30444336 C1.17074036 6.21886703 1.1803479 7.13329071 1.19024658 8.07542419 C1.19449646 9.07018265 1.19874634 10.0649411 1.203125 11.08984375 C1.20882507 12.10470352 1.21452515 13.11956329 1.22039795 14.16517639 C1.2298633 16.31640576 1.236388 18.46764973 1.24023438 20.61889648 C1.24994855 23.9200145 1.28096127 27.22051244 1.3125 30.52148438 C1.31902874 32.60676712 1.32427972 34.69205433 1.328125 36.77734375 C1.3404718 37.77007797 1.3528186 38.76281219 1.36553955 39.78562927 C1.36253845 40.70320511 1.35953735 41.62078094 1.35644531 42.56616211 C1.36009094 43.37588974 1.36373657 44.18561737 1.36749268 45.0198822 C1.24622009 45.67332108 1.12494751 46.32675995 1 47 C-2 49 -2 49 -5.1875 48.625 C-6.115625 48.41875 -7.04375 48.2125 -8 48 C-8.92142415 45.23572755 -9.12637636 43.59363983 -9.12939453 40.74389648 C-9.13254669 39.88968613 -9.13569885 39.03547577 -9.13894653 38.15538025 C-9.1369223 37.2365657 -9.13489807 36.31775116 -9.1328125 35.37109375 C-9.13376923 34.42565201 -9.13472595 33.48021027 -9.13571167 32.50611877 C-9.13639209 30.50806614 -9.13454741 28.51001128 -9.13037109 26.51196289 C-9.12501498 23.44607609 -9.13032381 20.3803354 -9.13671875 17.31445312 C-9.13605806 15.37499968 -9.13477709 13.43554632 -9.1328125 11.49609375 C-9.13483673 10.57525497 -9.13686096 9.6544162 -9.13894653 8.70567322 C-9.13579437 7.85461502 -9.13264221 7.00355682 -9.12939453 6.12670898 C-9.12859894 5.37630844 -9.12780334 4.6259079 -9.12698364 3.85276794 C-9 2 -9 2 -8 0 C-4.69676014 -1.10107995 -3.29495231 -0.86709271 0 0 Z " fill="#4C2D6E" transform="translate(39,247)"/>
<path d="M0 0 C0.33 0.66 0.66 1.32 1 2 C0.34 2 -0.32 2 -1 2 C-1.66 3.32 -2.32 4.64 -3 6 C-2.34 6.33 -1.68 6.66 -1 7 C0.19094113 13.66927035 0.06182961 20.30922278 -0.12451172 27.05859375 C-0.3019786 32.39381395 -0.3019786 32.39381395 2 37 C3.93981618 37.90609992 3.93981618 37.90609992 6.125 38.25 C7.40375 38.4975 8.6825 38.745 10 39 C10 39.66 10 40.32 10 41 C8.5629191 41.05422947 7.12524538 41.09289723 5.6875 41.125 C4.88699219 41.14820313 4.08648437 41.17140625 3.26171875 41.1953125 C1 41 1 41 -2 39 C-3.04449911 42.13349732 -2.93423645 42.98968256 -2 46 C-0.02 45.505 -0.02 45.505 2 45 C2 45.99 2 46.98 2 48 C-3.6194978 46.46740969 -6.30370543 44.45501891 -9.58618164 39.7043457 C-12.00804798 35.07181015 -11.47159348 30.3170197 -11.4375 25.1875 C-11.45748047 24.13240234 -11.47746094 23.07730469 -11.49804688 21.99023438 C-11.49398626 15.47295401 -10.87157853 10.37837342 -7 5 C-4.79239362 2.84623768 -2.65493898 1.6338086 0 0 Z " fill="#713D82" transform="translate(327,247)"/>
<path d="M0 0 C0.33 0 0.66 0 1 0 C1.07404737 4.94788314 1.12855246 9.89544524 1.16479492 14.84375 C1.17990003 16.5277264 1.20038546 18.21166335 1.22631836 19.89550781 C1.26262721 22.31324993 1.27970847 24.73047292 1.29296875 27.1484375 C1.30845261 27.9036972 1.32393646 28.65895691 1.33988953 29.43710327 C1.34057617 31.56005859 1.34057617 31.56005859 1 35 C-2 37 -2 37 -5.125 36.6875 C-8 36 -8 36 -9 35 C-9.15988491 32.48119483 -9.25934225 29.98657734 -9.31640625 27.46484375 C-9.33718735 26.71159317 -9.35796844 25.95834259 -9.37937927 25.18226624 C-9.44495425 22.7674401 -9.50379621 20.35250202 -9.5625 17.9375 C-9.6056777 16.30402471 -9.64929173 14.6705609 -9.69335938 13.03710938 C-9.80064362 9.02485536 -9.90188821 5.01248836 -10 1 C-7.525 1.99 -7.525 1.99 -5 3 C-5 3.66 -5 4.32 -5 5 C-3.35 4.67 -1.7 4.34 0 4 C0 2.68 0 1.36 0 0 Z " fill="#5D3B7A" transform="translate(127,259)"/>
<path d="M0 0 C0.66 0.33 1.32 0.66 2 1 C1.67 1.66 1.34 2.32 1 3 C0.90803293 5.03093499 0.8825005 7.06497963 0.88647461 9.09799194 C0.8865451 10.39915451 0.8866156 11.70031708 0.88668823 13.04090881 C0.89182267 14.49130279 0.89704412 15.94169646 0.90234375 17.39208984 C0.90426205 18.91296846 0.90572626 20.43384771 0.9067688 21.95472717 C0.90993507 25.23468563 0.91621164 28.5146185 0.92483521 31.79456711 C0.93832804 36.97938599 0.94424564 42.16419628 0.94897461 47.34902954 C0.9610349 59.29399083 0.98307607 71.23892991 1.00520325 83.18387604 C1.02537173 94.12420785 1.04344695 105.06453216 1.05341816 116.00487864 C1.05840598 121.16034336 1.06827424 126.31576893 1.08184814 131.47121787 C1.08930185 134.67812198 1.09262228 137.88502068 1.0948143 141.0919323 C1.0966882 142.58026006 1.10029291 144.0685868 1.10574722 145.55690575 C1.11295411 147.58727295 1.11341586 149.61766078 1.11352539 151.64804077 C1.115746 152.78477926 1.11796661 153.92151775 1.12025452 155.09270287 C1.01728416 157.58213474 0.72847786 159.63087681 0 162 C-0.66 162 -1.32 162 -2 162 C-2 108.87 -2 55.74 -2 1 C-1.34 0.67 -0.68 0.34 0 0 Z " fill="#774D87" transform="translate(279,29)"/>
<path d="M0 0 C12.3621249 -0.494485 12.3621249 -0.494485 15.36328125 1.83203125 C17.48530348 4.64282442 17.92826756 6.48511031 18 10 C16.6260627 12.87872577 15.25010563 14.74989437 13 17 C8.65604929 17.27917421 4.35649033 17.08542138 0 17 C0 11.39 0 5.78 0 0 Z " fill="#FAF6FC" transform="translate(616,256)"/>
<path d="M0 0 C8.1627907 -0.62790698 8.1627907 -0.62790698 11.5 1.875 C14.7896832 6.53538454 14.07214831 10.3724317 14 16 C8.06 16 2.12 16 -4 16 C-4 12.04 -4 8.08 -4 4 C-3.01 3.67 -2.02 3.34 -1 3 C-0.67 2.01 -0.34 1.02 0 0 Z " fill="#F7EFF9" transform="translate(435,256)"/>
<path d="M0 0 C3.73352748 2.95570926 3.73352748 2.95570926 5 6 C5.39548616 9.4515156 5.23612311 12.50537804 5 16 C-0.94 16 -6.88 16 -13 16 C-13 12.04 -13 8.08 -13 4 C-12.01 3.67 -11.02 3.34 -10 3 C-10 2.34 -10 1.68 -10 1 C-6.7464117 -0.62679415 -3.50468494 -0.67681296 0 0 Z " fill="#F8F2FA" transform="translate(241,256)"/>
<path d="M0 0 C0.99 0 1.98 0 3 0 C3 40.26 3 80.52 3 122 C2.67 122 2.34 122 2 122 C1.67 107.81 1.34 93.62 1 79 C0.67 79 0.34 79 0 79 C-0.07228939 76.46987135 -0.04546476 74.20827405 0.49581909 71.72865295 C1.07211291 68.60972121 1.12716418 65.7012189 1.12939453 62.52905273 C1.13254669 61.24099228 1.13569885 59.95293182 1.13894653 58.62583923 C1.13715672 57.22842372 1.13510576 55.83100853 1.1328125 54.43359375 C1.13348659 52.99300622 1.1344575 51.5524188 1.13571167 50.11183167 C1.13718321 47.09838779 1.13505127 44.08497362 1.13037109 41.0715332 C1.12466899 37.21243397 1.12795929 33.35340422 1.13394356 29.49430752 C1.13755948 26.52174863 1.13640592 23.54920619 1.13381577 20.5766468 C1.13314962 19.15370742 1.133964 17.73076653 1.13629532 16.3078289 C1.13883927 14.31907048 1.13427338 12.3303068 1.12939453 10.34155273 C1.12859894 9.21079819 1.12780334 8.08004364 1.12698364 6.9150238 C1.01852121 4.42517093 0.72706015 2.37024134 0 0 Z " fill="#523266" transform="translate(544,30)"/>
<path d="M0 0 C0.33 0 0.66 0 1 0 C1 26.4 1 52.8 1 80 C1.66 80 2.32 80 3 80 C3.33 82.31 3.66 84.62 4 87 C2.515 87.495 2.515 87.495 1 88 C-3.43102934 79.13794131 -1.05928972 63.80236113 -0.87890625 54.00390625 C-0.85452128 52.43351551 -0.83068241 50.8631162 -0.80735779 49.29270935 C-0.74534791 45.21408113 -0.67605886 41.13560997 -0.60510254 37.05712891 C-0.53365479 32.87344345 -0.46929982 28.68964905 -0.40429688 24.50585938 C-0.27636041 16.33711873 -0.14071166 8.16853054 0 0 Z " fill="#5F3772" transform="translate(181,72)"/>
<path d="M0 0 C0.78052734 -0.00386719 1.56105469 -0.00773437 2.36523438 -0.01171875 C8.18414502 -0.00167749 8.18414502 -0.00167749 10.4375 1.125 C10.4375 1.785 10.4375 2.445 10.4375 3.125 C4.8275 3.125 -0.7825 3.125 -6.5625 3.125 C-6.8925 3.785 -7.2225 4.445 -7.5625 5.125 C-9.5425 6.115 -9.5425 6.115 -11.5625 7.125 C-11.8925 19.335 -12.2225 31.545 -12.5625 44.125 C-12.8925 44.125 -13.2225 44.125 -13.5625 44.125 C-13.61203293 38.80478261 -13.64828256 33.48470024 -13.67236328 28.16430664 C-13.68240487 26.35536357 -13.6960408 24.54643667 -13.71337891 22.73754883 C-13.73770832 20.13358565 -13.74900161 17.52983758 -13.7578125 14.92578125 C-13.77329636 13.71768547 -13.77329636 13.71768547 -13.78909302 12.48518372 C-13.78992172 8.31367232 -13.72672981 4.83080522 -11.5625 1.125 C-7.69479545 -0.16423485 -4.02812684 -0.02005706 0 0 Z " fill="#5F3571" transform="translate(459.5625,24.875)"/>
<path d="M0 0 C1.216875 -0.12375 2.43375 -0.2475 3.6875 -0.375 C4.71423828 -0.47941406 4.71423828 -0.47941406 5.76171875 -0.5859375 C8.58909914 0.15421443 10.24064037 1.39847651 12.01635742 3.71337891 C14.34801262 9.13365256 13.49098201 15.5679364 13.3125 21.375 C13.28739387 22.79292958 13.26458475 24.21090179 13.24414062 25.62890625 C13.18930824 29.08682988 13.10316611 32.54314188 13 36 C12.34 36 11.68 36 11 36 C10.98541748 35.1121582 10.97083496 34.22431641 10.95581055 33.30957031 C10.89465466 30.00672038 10.82048622 26.70469085 10.73754883 23.40234375 C10.70435206 21.97472086 10.67630369 20.54696837 10.65356445 19.11914062 C10.61991987 17.06324185 10.56760438 15.00852488 10.51171875 12.953125 C10.48553467 11.71723633 10.45935059 10.48134766 10.43237305 9.20800781 C9.97285826 5.79862087 9.47812393 4.35238327 7 2 C3.39534252 1.18685089 3.39534252 1.18685089 0 1 C0 0.67 0 0.34 0 0 Z " fill="#F1DEF3" transform="translate(375,256)"/>
<path d="M0 0 C7.26 0 14.52 0 22 0 C23.07396066 4.29584263 23.07329796 7.60212211 23 12 C22.34 12 21.68 12 21 12 C21 8.7 21 5.4 21 2 C14.73 2 8.46 2 2 2 C2 4.97 2 7.94 2 11 C1.34 11 0.68 11 0 11 C-1.125 3.375 -1.125 3.375 0 0 Z " fill="#623172" transform="translate(429,280)"/>
<path d="M0 0 C0.33 0.99 0.66 1.98 1 3 C0.71125 3.556875 0.4225 4.11375 0.125 4.6875 C-1.01239479 7.02547817 -1.28392885 8.63012551 -1.5625 11.1875 C-2 15 -2 15 -3 16 C-3.07258946 18.18639453 -3.08373783 20.37500389 -3.0625 22.5625 C-3.05347656 23.76003906 -3.04445313 24.95757812 -3.03515625 26.19140625 C-3.02355469 27.11824219 -3.01195312 28.04507812 -3 29 C-3.66 29 -4.32 29 -5 29 C-5 21.74 -5 14.48 -5 7 C-4.34 7 -3.68 7 -3 7 C-2.87625 6.401875 -2.7525 5.80375 -2.625 5.1875 C-2 3 -2 3 0 0 Z " fill="#56306B" transform="translate(526,253)"/>
<path d="M0 0 C1.0209375 0.433125 1.0209375 0.433125 2.0625 0.875 C10.10328469 3.95444946 16.82754637 4.247127 25.4375 4.125 C26.64599609 4.11597656 27.85449219 4.10695312 29.09960938 4.09765625 C32.06661278 4.07420168 35.03320143 4.04137794 38 4 C38 4.66 38 5.32 38 6 C33.83741853 6.04969106 29.67499739 6.08585642 25.51220703 6.10986328 C24.09811391 6.11987856 22.68404127 6.13349474 21.27001953 6.15087891 C19.22944054 6.17532559 17.18913697 6.18652784 15.1484375 6.1953125 C13.92302246 6.20578613 12.69760742 6.21625977 11.43505859 6.22705078 C7.96166703 5.99746626 5.23393024 5.2511457 2 4 C2 3.34 2 2.68 2 2 C1.34 2 0.68 2 0 2 C0 1.34 0 0.68 0 0 Z " fill="#D5BEDF" transform="translate(473,191)"/>
<path d="M0 0 C0.66 0.33 1.32 0.66 2 1 C2.02685412 3.31243792 2.04632841 5.6249627 2.0625 7.9375 C2.07410156 9.22527344 2.08570313 10.51304688 2.09765625 11.83984375 C2 15 2 15 1 16 C-0.34267413 16.08631874 -1.68974322 16.10706473 -3.03515625 16.09765625 C-3.84404297 16.09443359 -4.65292969 16.09121094 -5.48632812 16.08789062 C-6.33646484 16.07951172 -7.18660156 16.07113281 -8.0625 16.0625 C-8.91650391 16.05798828 -9.77050781 16.05347656 -10.65039062 16.04882812 C-12.76695663 16.03700373 -14.88348685 16.01906769 -17 16 C-17 15.67 -17 15.34 -17 15 C-11.95982004 14.37277761 -7.08410175 14 -2 14 C-0.12175109 12.12175109 -0.60897603 8.96064724 -0.4375 6.4375 C-0.35371094 5.23996094 -0.26992188 4.04242188 -0.18359375 2.80859375 C-0.09271484 1.41833984 -0.09271484 1.41833984 0 0 Z " fill="#4C3667" transform="translate(666,62)"/>
<path d="M0 0 C0.66 0 1.32 0 2 0 C2 8.58 2 17.16 2 26 C1.67 26 1.34 26 1 26 C0.67 19.07 0.34 12.14 0 5 C-4.95 6.485 -4.95 6.485 -10 8 C-7.1568006 5.1568006 -4.35155406 3.18579613 -1 1 C-0.67 0.67 -0.34 0.34 0 0 Z " fill="#F7E4FD" transform="translate(398,186)"/>
<path d="M0 0 C1 3 1 3 0.375 5.625 C-1 8 -1 8 -3.4375 8.875 C-6 9 -6 9 -9 8 C-9.33 6.02 -9.66 4.04 -10 2 C-8.02 2.99 -8.02 2.99 -6 4 C-6 4.66 -6 5.32 -6 6 C-5.566875 5.566875 -5.13375 5.13375 -4.6875 4.6875 C-3.125 3.125 -1.5625 1.5625 0 0 Z " fill="#5C386F" transform="translate(199,287)"/>
<path d="M0 0 C0.33 0 0.66 0 1 0 C1.05789006 3.45826342 1.09355821 6.91640293 1.125 10.375 C1.14175781 11.35984375 1.15851563 12.3446875 1.17578125 13.359375 C1.18222656 14.30039062 1.18867188 15.24140625 1.1953125 16.2109375 C1.20578613 17.08024902 1.21625977 17.94956055 1.22705078 18.84521484 C1 21 1 21 -1 23 C-3.625 22.625 -3.625 22.625 -6 22 C-6 21.01 -6 20.02 -6 19 C-3.525 19.99 -3.525 19.99 -1 21 C-1.33 20.01 -1.66 19.02 -2 18 C-1.34 18 -0.68 18 0 18 C0 17.34 0 16.68 0 16 C-0.66 15.67 -1.32 15.34 -2 15 C-1.34 10.05 -0.68 5.1 0 0 Z " fill="#5E3370" transform="translate(254,273)"/>
<path d="M0 0 C1.93719378 -0.05406122 3.87481921 -0.09282025 5.8125 -0.125 C6.89144531 -0.14820313 7.97039063 -0.17140625 9.08203125 -0.1953125 C12 0 12 0 15 2 C15.1875 5.625 15.1875 5.625 15 9 C11.93466836 10.53266582 8.73245728 10.10276471 5.375 10.0625 C4.66859375 10.05798828 3.9621875 10.05347656 3.234375 10.04882812 C1.48954725 10.03703875 -0.255237 10.01910324 -2 10 C-2 9.67 -2 9.34 -2 9 C2.62 9 7.24 9 12 9 C11.67 6.69 11.34 4.38 11 2 C7.37 1.67 3.74 1.34 0 1 C0 0.67 0 0.34 0 0 Z " fill="#654F7A" transform="translate(661,266)"/>
<path d="M0 0 C0.66 0.33 1.32 0.66 2 1 C-0.89366048 4.46693284 -2.6641377 5.82850142 -7.21386719 6.41259766 C-11.10801515 6.49191342 -14.98347479 6.43638926 -18.875 6.3125 C-20.24475108 6.28739222 -21.61454635 6.26458339 -22.984375 6.24414062 C-26.32404622 6.1853436 -29.66145431 6.10319834 -33 6 C-33 5.67 -33 5.34 -33 5 C-32.38068604 4.98018066 -31.76137207 4.96036133 -31.12329102 4.93994141 C-28.26932611 4.84364769 -25.41599143 4.73439903 -22.5625 4.625 C-21.58861328 4.5940625 -20.61472656 4.563125 -19.61132812 4.53125 C-9.0054297 4.51045704 -9.0054297 4.51045704 0 0 Z " fill="#D8C2E0" transform="translate(229,191)"/>
<path d="M0 0 C0.33 0.66 0.66 1.32 1 2 C1.66 2 2.32 2 3 2 C4.96969697 5.67676768 4.96969697 5.67676768 5.1875 8 C6.57852954 11.4240727 9.79691858 12.36934037 13 14 C13 14.66 13 15.32 13 16 C13.66 16.33 14.32 16.66 15 17 C13.68 17 12.36 17 11 17 C11 16.34 11 15.68 11 15 C9.576875 14.62875 9.576875 14.62875 8.125 14.25 C5 13 5 13 3.625 11.0625 C3 9 3 9 3 6 C2.34 6 1.68 6 1 6 C0.67 4.02 0.34 2.04 0 0 Z " fill="#E1D3E7" transform="translate(595,151)"/>
<path d="M0 0 C0.33 0 0.66 0 1 0 C1 11.22 1 22.44 1 34 C-0.485 34.495 -0.485 34.495 -2 35 C-2.99 34.34 -3.98 33.68 -5 33 C-3.02 32.505 -3.02 32.505 -1 32 C-0.67 21.44 -0.34 10.88 0 0 Z " fill="#5F3472" transform="translate(457,260)"/>
<path d="M0 0 C0.33 0 0.66 0 1 0 C1 11.22 1 22.44 1 34 C0.01 34 -0.98 34 -2 34 C-2 33.34 -2 32.68 -2 32 C-1.34 32 -0.68 32 0 32 C-0.05329468 30.65252686 -0.05329468 30.65252686 -0.10766602 29.27783203 C-0.23677242 25.94951643 -0.36110273 22.62109412 -0.48217773 19.29248047 C-0.5355959 17.85100177 -0.59092518 16.40959259 -0.64819336 14.96826172 C-0.73010997 12.89826447 -0.80518359 10.82811573 -0.87890625 8.7578125 C-0.9260376 7.5114502 -0.97316895 6.26508789 -1.02172852 4.98095703 C-1 2 -1 2 0 0 Z " fill="#6F4A83" transform="translate(485,259)"/>
<path d="M0 0 C0.33 0 0.66 0 1 0 C1.60947346 6.94364402 2.05986597 13.79525353 1.96875 20.765625 C2.01281306 23.91613394 2.46064557 26.89871202 3 30 C2.01 29.67 1.02 29.34 0 29 C0 19.43 0 9.86 0 0 Z " fill="#472F65" transform="translate(90,263)"/>
<path d="M0 0 C5.61 0 11.22 0 17 0 C17.33 0.99 17.66 1.98 18 3 C14.37 3 10.74 3 7 3 C7 2.34 7 1.68 7 1 C5.02 1.66 3.04 2.32 1 3 C0.67 2.01 0.34 1.02 0 0 Z " fill="#522F6D" transform="translate(525,25)"/>
<path d="M0 0 C2.475 0.495 2.475 0.495 5 1 C5.79953138 4.28696233 6.09658936 5.71023192 5 9 C2 8 2 8 0.8125 6.1875 C0 4 0 4 0 0 Z " fill="#533670" transform="translate(551,280)"/>
<path d="M0 0 C0.7425 0.0825 1.485 0.165 2.25 0.25 C1.1053125 1.11625 1.1053125 1.11625 -0.0625 2 C-4.01987526 5.31315138 -5.56914721 6.87496656 -6.26171875 12.140625 C-6.33434332 13.59311636 -6.39255619 15.04638879 -6.4375 16.5 C-6.47166016 17.24507813 -6.50582031 17.99015625 -6.54101562 18.7578125 C-6.62314054 20.58802492 -6.68825653 22.41898669 -6.75 24.25 C-7.08 24.25 -7.41 24.25 -7.75 24.25 C-7.77696009 21.4791017 -7.79681952 18.7084655 -7.8125 15.9375 C-7.82087891 15.15181641 -7.82925781 14.36613281 -7.83789062 13.55664062 C-7.84111328 12.79931641 -7.84433594 12.04199219 -7.84765625 11.26171875 C-7.85289307 10.56522217 -7.85812988 9.86872559 -7.86352539 9.15112305 C-7.68424471 6.14884631 -6.86738546 4.39673183 -5 2.0625 C-2.75 0.25 -2.75 0.25 0 0 Z " fill="#D9C5E3" transform="translate(149.75,255.75)"/>
<path d="M0 0 C0 0.66 0 1.32 0 2 C-11.22 1.67 -22.44 1.34 -34 1 C-34 0.67 -34 0.34 -34 0 C-29.47954554 -0.16749457 -24.95891882 -0.32806608 -20.43798828 -0.48217773 C-18.89950922 -0.53560391 -17.36109506 -0.59093379 -15.82275391 -0.64819336 C-13.61374914 -0.73008748 -11.40460276 -0.80517099 -9.1953125 -0.87890625 C-8.50567413 -0.90594131 -7.81603577 -0.93297638 -7.10549927 -0.96083069 C-2.22774341 -1.11387171 -2.22774341 -1.11387171 0 0 Z " fill="#EDD8F3" transform="translate(296,245)"/>
<path d="M0 0 C0.99 1.32 1.98 2.64 3 4 C0.94558853 8.82157793 -2.50392828 11.45222603 -7 14 C-10.5 14.375 -10.5 14.375 -13 14 C-12.443125 13.731875 -11.88625 13.46375 -11.3125 13.1875 C-8.91066602 11.99300335 -8.91066602 11.99300335 -6.375 10.375 C-4 9 -4 9 -2 9 C-1.34 6.03 -0.68 3.06 0 0 Z " fill="#E1D3E5" transform="translate(557,282)"/>
<path d="M0 0 C0.33 0 0.66 0 1 0 C1 9.9 1 19.8 1 30 C-0.32 29.34 -1.64 28.68 -3 28 C-2.34 27.67 -1.68 27.34 -1 27 C-0.67 18.09 -0.34 9.18 0 0 Z " fill="#492E64" transform="translate(55,261)"/>
<path d="M0 0 C0.33 0.66 0.66 1.32 1 2 C3.93008319 2.83557723 3.93008319 2.83557723 7 3 C7.66 2.34 8.32 1.68 9 1 C8.67 2.65 8.34 4.3 8 6 C5.36 6.33 2.72 6.66 0 7 C0 4.69 0 2.38 0 0 Z " fill="#6A2C76" transform="translate(341,285)"/>
<path d="M0 0 C2.33944736 0.28730055 4.6739143 0.61936779 7 1 C7 3.31 7 5.62 7 8 C6.34 7.67 5.68 7.34 5 7 C5 5.68 5 4.36 5 3 C3.02 3.66 1.04 4.32 -1 5 C-1 1 -1 1 0 0 Z " fill="#624373" transform="translate(208,246)"/>
<path d="M0 0 C0.99 0.66 1.98 1.32 3 2 C2.01 2.495 2.01 2.495 1 3 C0.34 2.67 -0.32 2.34 -1 2 C-1.0825 2.721875 -1.165 3.44375 -1.25 4.1875 C-2.15713831 7.58926868 -3.60010879 9.45466084 -6 12 C-6.66 12 -7.32 12 -8 12 C-6.74337944 7.49710965 -5.16038089 4.4566666 -2 1 C-1.34 0.67 -0.68 0.34 0 0 Z " fill="#E6D4EB" transform="translate(361,56)"/>
<path d="M0 0 C1.32 0.33 2.64 0.66 4 1 C4.625 3.375 4.625 3.375 5 6 C3 8 3 8 0.375 8.125 C-0.40875 8.08375 -1.1925 8.0425 -2 8 C-1.01 7.34 -0.02 6.68 1 6 C0.835 5.195625 0.67 4.39125 0.5 3.5625 C0 1 0 1 0 0 Z " fill="#56326E" transform="translate(552,254)"/>
<path d="M0 0 C0.99 0.66 1.98 1.32 3 2 C2.5020163 5.73487777 2.12508244 7.81237635 0 11 C-0.39387788 13.32387947 -0.73486085 15.65793749 -1 18 C-1.33 18 -1.66 18 -2 18 C-2 13.71 -2 9.42 -2 5 C-1.34 5 -0.68 5 0 5 C0 3.35 0 1.7 0 0 Z " fill="#583271" transform="translate(157,60)"/>
<path d="M0 0 C0.99 0.33 1.98 0.66 3 1 C2.34 1.66 1.68 2.32 1 3 C1.32326553 6.59679066 1.32326553 6.59679066 2 10 C0.68 9.67 -0.64 9.34 -2 9 C-2.6875 6.1875 -2.6875 6.1875 -3 3 C-1.5625 1.125 -1.5625 1.125 0 0 Z " fill="#69407A" transform="translate(261,246)"/>
<path d="M0 0 C0.71929688 0.28875 1.43859375 0.5775 2.1796875 0.875 C3.97367766 1.59060826 5.77029555 2.29968945 7.5703125 3 C8.41335938 3.33 9.25640625 3.66 10.125 4 C10.97320313 4.33 11.82140625 4.66 12.6953125 5 C15 6 15 6 18 8 C12.33557626 7.63495936 7.99296295 6.9445679 3 4 C3 3.34 3 2.68 3 2 C1.68 1.67 0.36 1.34 -1 1 C-0.67 0.67 -0.34 0.34 0 0 Z " fill="#5B4375" transform="translate(607,90)"/>
<path d="M0 0 C1.093125 0.185625 2.18625 0.37125 3.3125 0.5625 C6.93624133 1.2578068 6.93624133 1.2578068 10 0 C9.375 1.9375 9.375 1.9375 8 4 C5 4.875 5 4.875 2 5 C1.34 4.34 0.68 3.68 0 3 C0 2.01 0 1.02 0 0 Z " fill="#593E6D" transform="translate(46,291)"/>
<path d="M0 0 C-0.33 0.66 -0.66 1.32 -1 2 C-2.92578125 2.44921875 -2.92578125 2.44921875 -5.3125 2.6875 C-6.48232422 2.81705078 -6.48232422 2.81705078 -7.67578125 2.94921875 C-9.99287105 2.99984424 -11.79287394 2.67173402 -14 2 C-14 1.34 -14 0.68 -14 0 C-12.04235617 -0.19456705 -10.08384679 -0.38044247 -8.125 -0.5625 C-6.48917969 -0.71912109 -6.48917969 -0.71912109 -4.8203125 -0.87890625 C-2 -1 -2 -1 0 0 Z " fill="#7A528B" transform="translate(506,169)"/>
<path d="M0 0 C1.57432497 3.14864995 0.71895552 5.64487425 0 9 C-0.99 9.66 -1.98 10.32 -3 11 C-4.21284876 14.05429073 -4.21284876 14.05429073 -5 17 C-6.30230734 13.99353048 -5.96485975 12.90644333 -4.78515625 9.765625 C-4.21667969 8.60546875 -3.64820313 7.4453125 -3.0625 6.25 C-2.21365234 4.49429687 -2.21365234 4.49429687 -1.34765625 2.703125 C-0.90292969 1.81109375 -0.45820313 0.9190625 0 0 Z " fill="#CDB6D5" transform="translate(214,255)"/>
<path d="M0 0 C0 0.99 0 1.98 0 3 C-0.99 3 -1.98 3 -3 3 C-3.33 3.66 -3.66 4.32 -4 5 C-4.33 4.67 -4.66 4.34 -5 4 C-5.33 5.65 -5.66 7.3 -6 9 C-6.33 9 -6.66 9 -7 9 C-7 6.36 -7 3.72 -7 1 C-4 0 -4 0 0 0 Z " fill="#66467C" transform="translate(180,246)"/>
<path d="M0 0 C0.99 0.33 1.98 0.66 3 1 C3 1.66 3 2.32 3 3 C-3.6 3 -10.2 3 -17 3 C-17.33 2.34 -17.66 1.68 -18 1 C-16.17662109 1.01740234 -16.17662109 1.01740234 -14.31640625 1.03515625 C-12.73177236 1.04453278 -11.14713682 1.05363313 -9.5625 1.0625 C-8.76005859 1.07087891 -7.95761719 1.07925781 -7.13085938 1.08789062 C-5.08704779 1.0965143 -3.04316098 1.0522815 -1 1 C-0.67 0.67 -0.34 0.34 0 0 Z " fill="#5B3371" transform="translate(504,193)"/>
<path d="M0 0 C1.22589844 -0.01417969 2.45179688 -0.02835938 3.71484375 -0.04296875 C6.81893812 0.17073203 8.47612551 0.54751818 11.0625 2.1875 C9.93070313 2.16429687 8.79890625 2.14109375 7.6328125 2.1171875 C6.15104825 2.09843099 4.66927688 2.08023066 3.1875 2.0625 C2.06794922 2.03736328 2.06794922 2.03736328 0.92578125 2.01171875 C-1.02944461 1.9941041 -2.98492021 2.08429811 -4.9375 2.1875 C-5.5975 2.8475 -6.2575 3.5075 -6.9375 4.1875 C-7.9275 3.8575 -8.9175 3.5275 -9.9375 3.1875 C-9.9375 2.5275 -9.9375 1.8675 -9.9375 1.1875 C-6.46363568 0.02954523 -3.65980696 0.01920151 0 0 Z " fill="#EAD6F2" transform="translate(204.9375,51.8125)"/>
<path d="M0 0 C0.33 0.99 0.66 1.98 1 3 C0.67 3.33 0.34 3.66 0 4 C-0.23427778 6.01594582 -0.41336124 8.038474 -0.5625 10.0625 C-0.68818359 11.71958984 -0.68818359 11.71958984 -0.81640625 13.41015625 C-0.87699219 14.26480469 -0.93757813 15.11945313 -1 16 C-1.33 16 -1.66 16 -2 16 C-2 14.35 -2 12.7 -2 11 C-2.66 11 -3.32 11 -4 11 C-3.48964169 6.6109185 -2.47785723 3.66291938 0 0 Z " fill="#603072" transform="translate(432,256)"/>
<path d="M0 0 C0.144375 0.61875 0.28875 1.2375 0.4375 1.875 C0.93152225 4.03258322 0.93152225 4.03258322 2 6 C1.43152344 5.79503906 0.86304688 5.59007812 0.27734375 5.37890625 C-4.5084454 3.70907331 -8.95943201 2.53623064 -14 2 C-14 1.67 -14 1.34 -14 1 C-12.22932584 0.83165067 -10.45845388 0.66538091 -8.6875 0.5 C-7.70136719 0.4071875 -6.71523437 0.314375 -5.69921875 0.21875 C-3 0 -3 0 0 0 Z " fill="#EDDEF2" transform="translate(247,244)"/>
<path d="M0 0 C0.99 0.33 1.98 0.66 3 1 C3 1.66 3 2.32 3 3 C2.34 3 1.68 3 1 3 C1.33 8.94 1.66 14.88 2 21 C1.34 21 0.68 21 0 21 C0 14.07 0 7.14 0 0 Z " fill="#4C2F67" transform="translate(133,260)"/>
<path d="M0 0 C0.33 0 0.66 0 1 0 C1.33 7.26 1.66 14.52 2 22 C1.01 22 0.02 22 -1 22 C-0.67 14.74 -0.34 7.48 0 0 Z " fill="#C1B5CF" transform="translate(33,64)"/>
<path d="M0 0 C5.28 0 10.56 0 16 0 C11.7014424 2.1492788 9.68841718 2.08225293 5 2 C3.32442621 2.28520405 1.65182755 2.59955696 0 3 C0 2.01 0 1.02 0 0 Z " fill="#4D3465" transform="translate(70,26)"/>
<path d="M0 0 C0.81984375 0.05800781 1.6396875 0.11601562 2.484375 0.17578125 C2.484375 0.50578125 2.484375 0.83578125 2.484375 1.17578125 C1.38029297 1.35753906 1.38029297 1.35753906 0.25390625 1.54296875 C-0.72191406 1.71054688 -1.69773437 1.878125 -2.703125 2.05078125 C-3.66605469 2.21320313 -4.62898438 2.375625 -5.62109375 2.54296875 C-8.42595104 3.15617642 -10.88787247 4.03244468 -13.515625 5.17578125 C-10.40821807 -1.03903261 -6.20026032 -0.25958028 0 0 Z " fill="#EEDAF0" transform="translate(379.515625,244.82421875)"/>
<path d="M0 0 C0.66 0.33 1.32 0.66 2 1 C1.3203125 2.890625 1.3203125 2.890625 0 5 C-2.3828125 6.046875 -2.3828125 6.046875 -5.125 6.75 C-6.03507812 6.99234375 -6.94515625 7.2346875 -7.8828125 7.484375 C-8.93082031 7.73960937 -8.93082031 7.73960937 -10 8 C-7.28498821 5.15492777 -4.29375803 3.14810307 -1 1 C-0.67 0.67 -0.34 0.34 0 0 Z " fill="#E0C6E5" transform="translate(398,186)"/>
<path d="M0 0 C0.33 0 0.66 0 1 0 C1.01417969 0.68707031 1.02835937 1.37414062 1.04296875 2.08203125 C1.18718817 4.80660898 1.39137986 7.3383584 2 10 C4.37255115 12.21306951 4.37255115 12.21306951 7 13 C5.1875 13.625 5.1875 13.625 3 14 C2.01 13.34 1.02 12.68 0 12 C-0.29296875 9.1796875 -0.29296875 9.1796875 -0.1875 5.875 C-0.16042969 4.77929688 -0.13335937 3.68359375 -0.10546875 2.5546875 C-0.07066406 1.71164062 -0.03585937 0.86859375 0 0 Z " fill="#745085" transform="translate(449,282)"/>
<path d="M0 0 C2.76276177 0.52268466 5.3260876 1.10869587 8 2 C9.25 4.375 9.25 4.375 10 7 C9.67 7.99 9.34 8.98 9 10 C8.773125 9.4225 8.54625 8.845 8.3125 8.25 C6.66291738 5.42214408 4.60289641 3.95217231 2 2 C1.34 1.34 0.68 0.68 0 0 Z " fill="#835A8D" transform="translate(216,54)"/>
<path d="M0 0 C-10.37357631 3.44419134 -10.37357631 3.44419134 -16 3 C-16 2.34 -16 1.68 -16 1 C-14.0852312 0.63571223 -12.16807707 0.28394694 -10.25 -0.0625 C-9.18265625 -0.25972656 -8.1153125 -0.45695312 -7.015625 -0.66015625 C-4.25228095 -0.97156937 -2.59053383 -0.8991416 0 0 Z " fill="#7D5B92" transform="translate(202,26)"/>
<path d="M0 0 C0.33 0.66 0.66 1.32 1 2 C1.66 2 2.32 2 3 2 C3 2.66 3 3.32 3 4 C4.32 3.34 5.64 2.68 7 2 C7 2.99 7 3.98 7 5 C4.6875 5.6875 4.6875 5.6875 2 6 C0.1875 4.5625 0.1875 4.5625 -1 3 C-0.67 2.01 -0.34 1.02 0 0 Z " fill="#5F336F" transform="translate(274,290)"/>
<path d="M0 0 C-3.68087353 2.45391569 -6.44355588 2.22802759 -10.6875 2.125 C-11.7403418 2.11146484 -11.7403418 2.11146484 -12.81445312 2.09765625 C-14.54311525 2.07413704 -16.27160145 2.03826713 -18 2 C-18 1.67 -18 1.34 -18 1 C-15.75152519 0.63627613 -13.50113812 0.28435904 -11.25 -0.0625 C-9.99703125 -0.25972656 -8.7440625 -0.45695313 -7.453125 -0.66015625 C-4.49983411 -0.95080818 -2.7397586 -0.98935727 0 0 Z " fill="#644B7A" transform="translate(634,169)"/>
<path d="M0 0 C2.5654594 2.5654594 2.54046087 4.47686668 3 8 C3.66 8 4.32 8 5 8 C5.33 9.65 5.66 11.3 6 13 C5.34 13 4.68 13 4 13 C4 11.68 4 10.36 4 9 C3.34 9 2.68 9 2 9 C0.9375 7.125 0.9375 7.125 0 5 C0.33 4.34 0.66 3.68 1 3 C0.34 3 -0.32 3 -1 3 C-0.67 2.01 -0.34 1.02 0 0 Z " fill="#71608C" transform="translate(665,125)"/>
<path d="M0 0 C1.32 0.33 2.64 0.66 4 1 C4 1.66 4 2.32 4 3 C4.94875 3.12375 5.8975 3.2475 6.875 3.375 C10 4 10 4 12 6 C7.92157346 6.23990744 4.73397847 5.69726294 1 4 C0.125 1.875 0.125 1.875 0 0 Z " fill="#655081" transform="translate(630,100)"/>
<path d="M0 0 C0.99 0 1.98 0 3 0 C3.33 0.99 3.66 1.98 4 3 C2.71034824 4.37562854 1.37310707 5.70766393 0 7 C-0.66 7 -1.32 7 -2 7 C-1.34 4.69 -0.68 2.38 0 0 Z " fill="#7F4C88" transform="translate(329,51)"/>
<path d="M0 0 C1.67542976 0.28604898 3.34385343 0.61781233 5 1 C5 1.66 5 2.32 5 3 C3.68 3.33 2.36 3.66 1 4 C1 4.66 1 5.32 1 6 C0.01 6 -0.98 6 -2 6 C-2 5.34 -2 4.68 -2 4 C-1.34 4 -0.68 4 0 4 C-0.33 3.01 -0.66 2.02 -1 1 C-0.67 0.67 -0.34 0.34 0 0 Z " fill="#583971" transform="translate(649,184)"/>
<path d="M0 0 C0.66 1.32 1.32 2.64 2 4 C1.67 4.33 1.34 4.66 1 5 C0.76572222 7.01594582 0.58663876 9.038474 0.4375 11.0625 C0.35371094 12.16722656 0.26992188 13.27195312 0.18359375 14.41015625 C0.12300781 15.26480469 0.06242188 16.11945313 0 17 C-0.33 17 -0.66 17 -1 17 C-1.02684679 14.35409986 -1.04676357 11.70846904 -1.0625 9.0625 C-1.07087891 8.30775391 -1.07925781 7.55300781 -1.08789062 6.77539062 C-1.09652441 4.85005687 -1.05224333 2.92464419 -1 1 C-0.67 0.67 -0.34 0.34 0 0 Z " fill="#513269" transform="translate(569,60)"/>
<path d="M0 0 C0.33 0.66 0.66 1.32 1 2 C2.32 1.67 3.64 1.34 5 1 C3.29171079 3.10633718 2.47851584 3.93801608 -0.26171875 4.29296875 C-1.06222656 4.25816406 -1.86273437 4.22335937 -2.6875 4.1875 C-3.49574219 4.16042969 -4.30398438 4.13335937 -5.13671875 4.10546875 C-5.75160156 4.07066406 -6.36648438 4.03585937 -7 4 C-4 2 -4 2 0 2 C0 1.34 0 0.68 0 0 Z " fill="#E5D6EC" transform="translate(584,282)"/>
<path d="M0 0 C0.99 0.33 1.98 0.66 3 1 C2.67 2.65 2.34 4.3 2 6 C0.68 6.33 -0.64 6.66 -2 7 C-1.125 1.125 -1.125 1.125 0 0 Z " fill="#6D4C7A" transform="translate(566,252)"/>
<path d="M0 0 C0.66 1.32 1.32 2.64 2 4 C0.25 5.5625 0.25 5.5625 -2 7 C-4.25 6.6875 -4.25 6.6875 -6 6 C-4 4 -2 2 0 0 Z " fill="#714C85" transform="translate(514,160)"/>
<path d="M0 0 C0.33 0.66 0.66 1.32 1 2 C1.66 2 2.32 2 3 2 C4.42944945 4.35438733 5.08661261 5.48032433 4.625 8.25 C4.41875 8.8275 4.2125 9.405 4 10 C3.67 8.68 3.34 7.36 3 6 C2.34 6 1.68 6 1 6 C0.67 4.02 0.34 2.04 0 0 Z " fill="#EDDEF5" transform="translate(595,151)"/>
<path d="M0 0 C2 2 2 2 2 5 C2.66 5 3.32 5 4 5 C4.33 6.65 4.66 8.3 5 10 C4.01 10.495 4.01 10.495 3 11 C3 9.68 3 8.36 3 7 C2.01 6.67 1.02 6.34 0 6 C0 4.02 0 2.04 0 0 Z " fill="#784F8A" transform="translate(249,49)"/>
<path d="M0 0 C3.63 0 7.26 0 11 0 C11 0.66 11 1.32 11 2 C6.99799622 3.60080151 3.95443764 2.29279692 0 1 C0 0.67 0 0.34 0 0 Z " fill="#453268" transform="translate(612,25)"/>
<path d="M0 0 C1.32 0.33 2.64 0.66 4 1 C4.66 3.31 5.32 5.62 6 8 C5.01 8 4.02 8 3 8 C3 6.35 3 4.7 3 3 C2.01 2.67 1.02 2.34 0 2 C0 1.34 0 0.68 0 0 Z " fill="#5C3C74" transform="translate(121,252)"/>
<path d="M0 0 C0.33 0.66 0.66 1.32 1 2 C1.66 2.33 2.32 2.66 3 3 C-1.75 4.125 -1.75 4.125 -4 3 C-6.09821215 3.39938767 -6.09821215 3.39938767 -8 4 C-5.60490662 1.10067643 -3.68754757 0.49831724 0 0 Z " fill="#745288" transform="translate(233,246)"/>
<path d="M0 0 C0.99 0.33 1.98 0.66 3 1 C-0.625 5.875 -0.625 5.875 -4 7 C-2.92598892 4.08482708 -2.22189824 2.22189824 0 0 Z " fill="#754B85" transform="translate(396,159)"/>
<path d="M0 0 C-1.39332574 3.36720387 -2.9789286 4.9859524 -6 7 C-5.625 4.0625 -5.625 4.0625 -5 1 C-3 0 -3 0 0 0 Z " fill="#F4E6F6" transform="translate(582,36)"/>
<path d="M0 0 C0.66 0.33 1.32 0.66 2 1 C2.125 3.875 2.125 3.875 2 7 C0 9 0 9 -3.125 9.125 C-4.548125 9.063125 -4.548125 9.063125 -6 9 C-6 8.67 -6 8.34 -6 8 C-4.35 8 -2.7 8 -1 8 C-0.67 5.36 -0.34 2.72 0 0 Z " fill="#584270" transform="translate(640,286)"/>
<path d="M0 0 C0.99 0.33 1.98 0.66 3 1 C3.33 2.65 3.66 4.3 4 6 C2.68 6.33 1.36 6.66 0 7 C0.66 6.67 1.32 6.34 2 6 C2 5.34 2 4.68 2 4 C1.34 4 0.68 4 0 4 C0 2.68 0 1.36 0 0 Z " fill="#452B70" transform="translate(637,285)"/>
<path d="M0 0 C0.66 0.33 1.32 0.66 2 1 C2 1.66 2 2.32 2 3 C2.66 3.66 3.32 4.32 4 5 C2.02 6.32 0.04 7.64 -2 9 C-1.34 6.03 -0.68 3.06 0 0 Z " fill="#DEC8E2" transform="translate(204,277)"/>
<path d="M0 0 C1.5 1.3125 1.5 1.3125 3 3 C3 3.99 3 4.98 3 6 C3.66 6.33 4.32 6.66 5 7 C4.67 7.66 4.34 8.32 4 9 C1.4375 6.75 1.4375 6.75 -1 4 C-0.8125 1.6875 -0.8125 1.6875 0 0 Z " fill="#E2D8EC" transform="translate(637,278)"/>
<path d="M0 0 C0.33 0 0.66 0 1 0 C1.25 3.25 1.25 3.25 1 7 C-0.32 8.32 -1.64 9.64 -3 11 C-2.01 7.37 -1.02 3.74 0 0 Z " fill="#7E598A" transform="translate(204,251)"/>
<path d="M0 0 C5.28497409 -0.44041451 5.28497409 -0.44041451 8 0 C10.5 2.5 10.5 2.5 12 5 C11.01 5 10.02 5 9 5 C8.34 4.01 7.68 3.02 7 2 C3.43230448 1.26393501 3.43230448 1.26393501 0 1 C0 0.67 0 0.34 0 0 Z " fill="#E7D0EC" transform="translate(375,256)"/>
<path d="M0 0 C1.22589844 0.01353516 1.22589844 0.01353516 2.4765625 0.02734375 C3.41628906 0.04474609 3.41628906 0.04474609 4.375 0.0625 C4.705 0.7225 5.035 1.3825 5.375 2.0625 C2.735 1.7325 0.095 1.4025 -2.625 1.0625 C-2.625 1.7225 -2.625 2.3825 -2.625 3.0625 C-3.945 3.0625 -5.265 3.0625 -6.625 3.0625 C-6.625 2.4025 -6.625 1.7425 -6.625 1.0625 C-4.21954362 -0.14022819 -2.67503047 -0.03821472 0 0 Z " fill="#DFC7E6" transform="translate(335.625,255.9375)"/>
<path d="M0 0 C3.25543229 0.34879632 4.01873107 1.02133261 6.25 3.5625 C6.8275 4.366875 7.405 5.17125 8 6 C7.34 6.66 6.68 7.32 6 8 C6 7.01 6 6.02 6 5 C5.38125 4.9175 4.7625 4.835 4.125 4.75 C2 4 2 4 0.75 1.9375 C0.5025 1.298125 0.255 0.65875 0 0 Z " fill="#715687" transform="translate(160,248)"/>
<path d="M0 0 C-0.66 0 -1.32 0 -2 0 C-2 0.66 -2 1.32 -2 2 C-5 4 -5 4 -8 4 C-7.1875 2.0625 -7.1875 2.0625 -6 0 C-3 -1 -3 -1 0 0 Z " fill="#5D4676" transform="translate(102,250)"/>
<path d="M0 0 C0.99 0.33 1.98 0.66 3 1 C4.125 6.75 4.125 6.75 3 9 C2.34 9 1.68 9 1 9 C1.020625 8.071875 1.04125 7.14375 1.0625 6.1875 C1.15769604 2.97713989 1.15769604 2.97713989 0 0 Z " fill="#694C7C" transform="translate(496,246)"/>
<path d="M0 0 C0.66 0 1.32 0 2 0 C2.33 1.32 2.66 2.64 3 4 C4.65 4.33 6.3 4.66 8 5 C7.67 5.99 7.34 6.98 7 8 C1.21538462 4.55384615 1.21538462 4.55384615 0.125 1.75 C0.08375 1.1725 0.0425 0.595 0 0 Z " fill="#755987" transform="translate(577,177)"/>
<path d="M0 0 C0.33 0.99 0.66 1.98 1 3 C1.99 3 2.98 3 4 3 C4 4.98 4 6.96 4 9 C3.01 8.34 2.02 7.68 1 7 C0.3125 3.375 0.3125 3.375 0 0 Z " fill="#754484" transform="translate(331,169)"/>
<path d="M0 0 C1.125 3.75 1.125 3.75 0 6 C-2.32156597 6.40729228 -4.6568787 6.74438677 -7 7 C-4.66666667 4.66666667 -2.33333333 2.33333333 0 0 Z " fill="#775E92" transform="translate(640,160)"/>
<path d="M0 0 C0.66 0 1.32 0 2 0 C2.33 2.97 2.66 5.94 3 9 C2.01 8.67 1.02 8.34 0 8 C0 5.36 0 2.72 0 0 Z " fill="#5B426F" transform="translate(592,143)"/>
<path d="M0 0 C0.33 1.32 0.66 2.64 1 4 C0.01 4.33 -0.98 4.66 -2 5 C-2 5.99 -2 6.98 -2 8 C-3.32 7.67 -4.64 7.34 -6 7 C-4.71034824 5.62437146 -3.37310707 4.29233607 -2 3 C-1.34 3 -0.68 3 0 3 C0 2.01 0 1.02 0 0 Z " fill="#F4E6F7" transform="translate(352,286)"/>
<path d="M0 0 C0.66 0.33 1.32 0.66 2 1 C0.71937515 2.7074998 -0.61767557 4.37373596 -2 6 C-2.66 6 -3.32 6 -4 6 C-3.67 4.35 -3.34 2.7 -3 1 C-2.01 0.67 -1.02 0.34 0 0 Z " fill="#644477" transform="translate(166,287)"/>
<path d="M0 0 C1.24546405 2.49092811 0.7767578 3.41080733 0 6 C-0.66 6 -1.32 6 -2 6 C-2 6.66 -2 7.32 -2 8 C-2.66 8 -3.32 8 -4 8 C-3.40138258 5.64828869 -2.73075648 3.3140622 -2 1 C-1.34 0.67 -0.68 0.34 0 0 Z " fill="#785289" transform="translate(223,251)"/>
<path d="M0 0 C0.93065133 2.60582371 1.14917407 3.64198224 0.0625 6.25 C-0.4634375 7.11625 -0.4634375 7.11625 -1 8 C-1.99 7.67 -2.98 7.34 -4 7 C-3.34 5.35 -2.68 3.7 -2 2 C-1.34 2 -0.68 2 0 2 C0 1.34 0 0.68 0 0 Z " fill="#684E7C" transform="translate(137,252)"/>
<path d="M0 0 C2.25 -0.25 2.25 -0.25 5 0 C7.3125 2 7.3125 2 9 4 C6.36 3.67 3.72 3.34 1 3 C0.67 2.01 0.34 1.02 0 0 Z " fill="#634378" transform="translate(585,247)"/>
<path d="M0 0 C2.97 0.33 5.94 0.66 9 1 C9 1.66 9 2.32 9 3 C6.1875 3.1875 6.1875 3.1875 3 3 C2.01 2.01 1.02 1.02 0 0 Z " fill="#4A3262" transform="translate(107,246)"/>
<path d="M0 0 C-2.66666667 1.33333333 -5.33333333 2.66666667 -8 4 C-7.6875 2.0625 -7.6875 2.0625 -7 0 C-3.86650268 -1.04449911 -3.01031744 -0.93423645 0 0 Z " fill="#5B4775" transform="translate(38,247)"/>
<path d="M0 0 C0.433125 0.639375 0.86625 1.27875 1.3125 1.9375 C2.91239177 4.26746003 2.91239177 4.26746003 6 5 C5.67 6.32 5.34 7.64 5 9 C3.0625 7.875 3.0625 7.875 1 6 C0.25 2.8125 0.25 2.8125 0 0 Z " fill="#815A90" transform="translate(401,214)"/>
<path d="M0 0 C1.65 0 3.3 0 5 0 C5.66 1.65 6.32 3.3 7 5 C6.01 5 5.02 5 4 5 C4 4.34 4 3.68 4 3 C2.68 2.34 1.36 1.68 0 1 C0 0.67 0 0.34 0 0 Z " fill="#674675" transform="translate(167,180)"/>
<path d="M0 0 C0.99 0.495 0.99 0.495 2 1 C2 1.66 2 2.32 2 3 C2.99 3.33 3.98 3.66 5 4 C5 4.99 5 5.98 5 7 C3.0625 6.3125 3.0625 6.3125 1 5 C0.25 2.375 0.25 2.375 0 0 Z " fill="#624878" transform="translate(654,113)"/>
<path d="M0 0 C0.33 0 0.66 0 1 0 C1.16852247 1.60397277 1.33474886 3.2081869 1.5 4.8125 C1.5928125 5.70582031 1.685625 6.59914063 1.78125 7.51953125 C2 10 2 10 2 13 C1.34 13 0.68 13 0 13 C0 8.71 0 4.42 0 0 Z " fill="#6D4B7D" transform="translate(246,282)"/>
<path d="M0 0 C3.78611227 0.54087318 5.55400767 2.11722332 8 5 C8 5.66 8 6.32 8 7 C7.34 7 6.68 7 6 7 C4.62517293 5.36739286 3.29352333 3.69774938 2 2 C1.34 1.34 0.68 0.68 0 0 Z " fill="#EDDBF1" transform="translate(389,249)"/>
<path d="M0 0 C0 0.66 0 1.32 0 2 C-2.31 2.33 -4.62 2.66 -7 3 C-7.33 2.34 -7.66 1.68 -8 1 C-5.29120665 -0.35439668 -2.99066732 -0.06501451 0 0 Z " fill="#673A73" transform="translate(381,246)"/>
</svg>
